<svg width="506" height="506" viewBox="0 0 506 506" fill="none" xmlns="http://www.w3.org/2000/svg">
<circle cx="253" cy="253" r="253" fill="white" fill-opacity="0.2"/>
<circle cx="253" cy="253" r="207" fill="white"/>
<path d="M159.309 255.227C159.309 196.75 204.426 148.762 261.789 144.309C258.918 144.074 255.93 143.957 253 143.957C191.535 143.957 141.73 193.762 141.73 255.227C141.73 316.691 191.535 366.496 253 366.496C255.93 366.496 258.918 366.379 261.789 366.145C204.426 361.691 159.309 313.762 159.309 255.227Z" fill="#D4E1F4"/>
<path d="M140.734 195.461C141.32 195.813 141.906 195.93 142.492 195.93C143.723 195.93 144.895 195.285 145.539 194.172C156.32 175.949 171.73 160.598 190.012 149.875C191.711 148.879 192.238 146.711 191.242 145.07C190.246 143.371 188.078 142.844 186.437 143.84C167.102 155.148 150.871 171.379 139.504 190.656C138.508 192.297 139.094 194.465 140.734 195.461Z" fill="#FF4F4F"/>
<path d="M199.621 144.426C200.09 144.426 200.617 144.309 201.086 144.133C202.082 143.664 203.137 143.195 204.191 142.785C205.949 142.023 206.828 139.973 206.066 138.156C205.305 136.398 203.254 135.52 201.438 136.281C200.324 136.75 199.211 137.219 198.156 137.746C196.398 138.566 195.637 140.617 196.398 142.434C197.043 143.664 198.332 144.426 199.621 144.426Z" fill="#FF4F4F"/>
<path d="M253 140.441C189.719 140.441 138.215 191.945 138.215 255.227C138.215 318.508 189.719 370.012 253 370.012C316.281 370.012 367.785 318.508 367.785 255.227C367.785 191.945 316.281 140.441 253 140.441ZM234.543 149.055C217.844 160.773 204.953 177.531 196.633 197.805C188.84 193.059 181.633 187.316 175.246 180.695C190.832 164.465 211.398 153.098 234.543 149.055ZM170.5 186.027C177.531 193.293 185.441 199.445 194.055 204.543C189.074 218.898 186.32 234.836 185.969 251.828H145.305C146.125 226.633 155.441 203.957 170.5 186.027ZM170.5 324.543C155.441 306.672 146.125 283.469 145.305 258.859H186.027C186.379 275.852 189.133 291.73 194.113 306.027C185.441 311.184 177.531 317.395 170.5 324.543ZM175.246 329.758C181.574 323.137 188.781 317.395 196.633 312.648C204.953 332.922 217.844 349.68 234.543 361.398C211.398 357.414 190.832 345.988 175.246 329.758ZM249.484 289.973C244.738 290.09 239.992 290.559 235.305 291.262L236.359 298.234C240.695 297.59 245.09 297.18 249.484 297.062V362.277C228.332 351.437 212.277 332.863 202.785 309.191C208.117 306.437 213.684 304.094 219.484 302.219L217.316 295.539C211.457 297.414 205.773 299.816 200.324 302.629C195.871 289.328 193.352 274.738 193 258.918H249.484V289.973ZM249.484 251.828H193.059C193.41 236.008 195.871 221.301 200.383 208C215.441 215.676 232.199 219.953 249.484 220.48V251.828ZM249.484 213.449C233.02 212.922 217.082 208.703 202.785 201.32C212.277 177.648 228.273 159.074 249.484 148.293V213.449ZM335.207 185.734C350.441 203.664 359.875 226.633 360.695 251.828H319.973C319.621 234.836 316.809 218.781 311.828 204.367C320.383 199.211 328.234 193 335.207 185.734ZM330.461 180.402C324.133 187.082 317.043 192.824 309.309 197.629C300.988 177.414 288.156 160.715 271.516 149.055C294.426 153.039 314.934 164.348 330.461 180.402ZM256.516 148.234C277.609 159.074 293.664 177.59 303.156 201.145C301.281 202.141 299.406 203.078 297.473 203.957C284.582 209.816 270.813 212.98 256.574 213.449V148.234H256.516ZM256.516 220.48C271.809 220.012 286.574 216.613 300.344 210.344C302.102 209.523 303.859 208.762 305.617 207.824C310.129 221.184 312.648 235.949 313 251.77H256.516V220.48ZM256.516 258.859H312.941C312.59 274.68 310.07 289.387 305.559 302.687C303.859 301.809 302.102 300.871 300.344 300.109C286.516 293.84 271.809 290.441 256.516 289.973V258.859ZM256.516 297.062C270.813 297.531 284.582 300.695 297.414 306.555C299.348 307.434 301.223 308.371 303.098 309.367C293.664 332.922 277.609 351.437 256.516 362.219V297.062ZM271.457 361.398C288.098 349.738 300.988 333.039 309.25 312.824C316.984 317.629 324.074 323.371 330.402 330.051C314.934 346.164 294.426 357.414 271.457 361.398ZM335.207 324.895C328.234 317.629 320.383 311.359 311.828 306.203C316.809 291.848 319.621 275.852 319.973 258.859H360.695C359.875 284.055 350.441 306.965 335.207 324.895Z" fill="#FF4F4F"/>
<path d="M367.609 248.898C367.726 251.008 367.785 253.117 367.785 255.285V256.281C386.359 261.789 393.039 267.648 393.039 271.34C393.039 278.547 368.312 291.906 301.926 297.121C299.992 297.297 298.527 298.996 298.703 300.93C298.82 302.746 300.402 304.152 302.219 304.152H302.512C330.168 301.984 353.84 298 371.066 292.785C390.344 286.926 400.07 279.719 400.07 271.34C400.07 262.492 389.172 254.934 367.609 248.898Z" fill="#090E36"/>
<path d="M138.391 248.898C116.828 254.934 105.93 262.492 105.93 271.34C105.93 280.305 117.18 287.98 139.445 294.074C158.664 299.348 185.617 303.215 214.914 304.973V319.562C214.914 320.852 215.617 322.023 216.73 322.609C217.258 322.902 217.844 323.078 218.43 323.078C219.074 323.078 219.719 322.902 220.305 322.551L248.957 304.738C250.012 304.094 250.598 302.98 250.598 301.75C250.598 300.52 249.953 299.406 248.957 298.762L220.305 280.949C219.191 280.246 217.844 280.246 216.73 280.891C215.617 281.535 214.914 282.707 214.914 283.937V297.883C186.203 296.125 159.953 292.375 141.262 287.277C120.402 281.535 112.961 275.266 112.961 271.34C112.961 267.59 119.641 261.789 138.215 256.281C138.215 255.93 138.215 255.637 138.215 255.285C138.215 253.117 138.273 251.008 138.391 248.898ZM221.945 290.266L240.402 301.75L221.945 313.176V290.266Z" fill="#090E36"/>
</svg>
