<svg width="80" height="80" viewBox="0 0 80 80" fill="none" xmlns="http://www.w3.org/2000/svg">
<g clip-path="url(#clip0)">
<path d="M77.3555 7.50145C74.0444 4.43926 69.5007 7.08988 67.2849 10.0313C67.0065 10.4008 66.7343 10.775 66.4621 11.1493C65.6832 12.2199 65.0691 13.2046 64.5077 14.4058C64.1866 15.0928 63.7915 15.7985 63.3999 16.5203C62.8258 17.3874 62.2693 18.2688 61.7219 19.1608C61.2901 19.8645 60.829 20.5475 60.3594 21.2247C60.348 20.6624 60.294 20.0927 60.2605 19.561C60.3785 18.3777 60.5087 17.2 60.4957 15.9771C60.4712 13.6739 60.0074 11.4394 59.9727 9.12941C59.9452 7.29863 60.054 5.50817 60.1229 3.67505C60.1666 2.50942 60.2227 1.17364 59.0737 0.535521C57.7379 -0.206197 55.643 0.109897 54.1916 0.0453654C51.8382 -0.0594781 49.462 0.0511467 47.106 0.0445842C42.5606 0.0320842 37.9379 0.0341154 33.4015 0.352552C28.9501 0.665052 24.3645 1.05302 19.9064 0.989739C17.9497 0.96177 16.0164 1.11396 14.062 1.10927C11.7867 1.1038 9.42907 0.929895 7.16251 1.12724C5.76423 1.24911 3.63986 1.34864 2.54361 2.28677C1.41002 3.25677 1.69846 4.95551 1.69877 6.28114C1.70002 10.8539 1.71049 15.4217 1.70533 19.9972C1.69471 29.5712 1.55861 39.1389 1.55361 48.7092C1.55252 50.8168 1.58627 52.9087 1.6958 55.0129C1.81752 57.3498 1.62049 59.6404 1.6533 61.9785C1.68408 64.1763 1.67549 66.3742 1.67408 68.5724C1.6733 69.7707 1.68346 70.9688 1.68486 72.1671C1.68611 73.3132 1.43783 74.4562 1.52986 75.594C1.80799 79.0369 5.48251 78.7969 8.1761 78.8683C12.3309 78.9785 16.4658 79.1415 20.6322 79.1435C24.7175 79.1455 28.7401 79.6408 32.8123 79.8129C34.8251 79.8979 36.8867 80.0579 38.891 79.9785C41.2224 79.886 43.5638 79.7074 45.8921 79.663C47.912 79.6244 49.9216 79.5449 51.924 79.5382C53.7018 79.5323 54.4988 79.1224 55.632 77.796C57.0869 76.0929 58.5444 74.2604 60.1013 72.6551C61.441 71.2737 62.3118 70.9129 62.4458 68.9084C62.7312 64.6423 62.5127 60.2368 62.2865 55.9668C62.1338 53.0846 62.2807 50.1993 62.3457 47.317C62.4015 44.8481 62.2977 42.4476 62.0985 39.9875C62.0777 39.7309 62.0571 39.4714 62.0976 39.2172C62.2601 38.1986 63.3185 37.0361 63.9065 36.199C68.8163 29.2091 74.3822 22.2919 77.4949 14.2014C78.2947 12.1224 79.3288 9.32644 77.3555 7.50145ZM62.1652 21.4866C63.3301 19.7536 64.483 18.0121 65.5566 16.2152C66.0124 16.3891 66.768 16.8486 66.9308 16.9291C67.551 17.2355 68.1096 17.6364 68.685 18.0156C67.5311 19.5517 66.7207 21.3605 65.4946 22.8417C63.733 24.97 62.1161 27.1155 60.4832 29.3509C57.454 33.4978 54.8354 37.8536 52.0848 42.1611C51.9807 41.5772 51.7313 41.0522 51.0735 40.6369C50.6541 40.372 50.2409 40.277 49.7493 40.304C50.8516 38.5881 51.8541 36.7917 52.998 35.1064C54.7087 32.5859 56.5446 30.1828 58.1491 27.5906C59.4321 25.5178 60.8066 23.508 62.1652 21.4866ZM48.7802 47.7417C48.4613 47.5253 48.0796 47.3848 47.7091 47.2853C47.5659 47.2468 47.4149 47.2126 47.264 47.1945C47.3095 46.9129 47.3545 46.6315 47.4015 46.3501C47.5913 45.2128 47.5621 43.7789 48.2445 42.7728C48.5287 42.3537 49.1266 41.8372 49.6888 42.0497C50.4198 42.3261 50.3862 43.4811 50.4573 44.0979C50.5299 44.7276 51.001 45.0268 51.5962 44.9378C51.8887 44.894 51.9321 44.6328 52.2921 44.6876C52.6898 44.7492 54.1135 46.1893 53.6263 46.6067C52.5824 47.5011 51.2316 48.4189 50.1401 49.1697C49.8409 48.6114 49.2785 48.08 48.7802 47.7417ZM49.2206 49.7967C48.8304 50.0603 48.4385 50.3218 48.0471 50.5743C47.7807 50.7462 47.1773 50.9617 46.961 51.187C46.8223 51.3317 46.7301 51.3665 46.6771 51.3787C46.632 50.692 46.9354 49.4939 46.9982 48.995C47.0299 48.7437 47.0688 48.4937 47.1051 48.2431C47.284 48.2764 47.4632 48.3157 47.6377 48.3886C48.0906 48.5775 48.3623 48.8429 48.7074 49.1843C48.879 49.3542 49.0415 49.6039 49.2206 49.7967ZM60.428 68.431C60.2801 69.461 60.1729 69.9035 59.3999 70.5746C58.6493 71.2263 58.0527 71.9734 57.411 72.729C56.2587 74.0863 55.1576 75.5134 53.8979 76.7719C52.8971 77.7718 51.6979 77.3549 50.3862 77.4116C46.7966 77.5666 43.2209 77.8199 39.6273 77.9388C35.7548 78.0669 31.9257 77.5332 28.0567 77.3998C20.9053 77.1532 13.7216 77.2569 6.57454 76.8907C5.79251 76.8505 4.23017 76.838 3.65033 76.1469C3.2258 75.641 3.60205 74.2519 3.6497 73.5654C3.78939 71.557 3.6422 69.4882 3.64095 67.4745C3.63845 63.4501 3.89361 59.3549 3.6597 55.352C3.17814 47.1107 3.62298 38.8211 3.61767 30.5709C3.61236 22.2308 3.61923 13.8925 3.62627 5.55739C3.62736 4.18926 3.95517 3.61864 5.33345 3.36614C6.24345 3.19942 7.1386 3.0402 8.06548 3.02942C10.1864 3.00474 12.3139 3.04177 14.4355 3.05067C18.1414 3.0663 21.837 2.77099 25.5361 2.6502C34.6246 2.35349 43.6863 2.02333 52.7865 1.98489C53.853 1.98036 54.9013 2.07255 55.9643 2.10474C57.1715 2.14146 58.108 1.76755 58.2293 3.19192C58.3946 5.13379 58.0373 7.17426 58.0977 9.12941C58.1623 11.2178 58.5352 13.2158 58.6412 15.2892C58.6665 15.7855 58.6738 16.2841 58.674 16.7833C58.5568 18.9296 58.4896 21.0658 58.9479 23.2238C58.1351 24.3586 57.3266 25.4952 56.5885 26.6786C54.976 29.2636 53.1391 31.6703 51.4279 34.1887C50.6351 35.3555 49.9141 36.5684 49.179 37.7717C48.5298 38.8345 47.6987 39.8564 47.1191 40.9489C46.0163 43.0279 45.6852 45.9247 45.3449 48.2275C45.1599 49.479 44.1651 52.7214 45.7785 53.3653C47.1254 53.9029 49.4276 51.7751 50.4082 51.1156C51.8873 50.1206 53.2521 48.9492 54.7134 47.922C56.5687 46.6179 57.7341 45.0717 59.1555 43.3434C59.5933 42.8112 60.0037 42.2493 60.3982 41.6714C60.3988 41.7318 60.399 41.7894 60.3979 41.8428C60.3769 42.86 60.3462 43.8736 60.4612 44.8701C60.356 47.6847 60.1744 50.4917 60.1702 53.3175C60.1649 56.9195 60.478 60.5213 60.5627 64.1323C60.5963 65.5674 60.6321 67.0099 60.428 68.431ZM68.4899 26.2241C66.175 29.8747 63.6007 33.3469 61.233 36.9647C60.0749 38.7342 58.9785 40.7192 57.6362 42.3429C56.9444 43.1797 56.1604 44.5654 55.2271 45.4295C55.1249 44.4698 54.9569 43.5253 54.0698 42.9379C53.7154 42.7033 53.4146 42.6158 53.1363 42.6086C53.4968 42.0034 53.8084 41.364 54.2021 40.7764C54.876 39.7704 55.5751 38.7864 56.2335 37.7705C57.7382 35.4487 59.154 33.1009 60.7866 30.858C63.7366 26.8055 67.0661 22.9158 69.3613 18.4563C70.348 19.1181 71.4971 20.0772 71.9324 21.1136C71.9407 21.1333 71.9544 21.1466 71.9641 21.1647C70.8004 22.8424 69.5804 24.5042 68.4899 26.2241ZM72.7432 19.8472C71.9522 18.6858 70.8096 17.8883 69.6044 17.191C68.8865 16.7755 67.358 15.5921 66.0946 15.2786C66.1133 15.2833 66.9127 13.6471 67.0601 13.4944C67.7235 12.8064 68.224 13.2153 68.9569 13.5524C70.3757 14.2047 71.5227 15.2113 72.6497 16.2617C74.0289 17.5472 73.2672 18.4047 72.7432 19.8472ZM74.9753 15.491C74.8003 15.8108 74.6374 16.1416 74.4771 16.4742C74.2986 15.99 74.0627 15.5238 73.7707 15.0919C72.77 13.6125 70.419 11.7074 68.525 11.1535C68.884 10.6535 69.2286 10.1668 69.5896 9.81894C71.1443 8.32051 73.9536 7.21176 75.8799 8.71035C77.7552 10.1693 75.856 13.8822 74.9753 15.491Z" fill="#FF4F4F"/>
<path d="M21.911 13.3369C20.2768 13.8694 19.2208 15.6094 18.1344 16.8757C17.9227 17.1224 17.7077 17.3647 17.4923 17.6066C17.3913 16.8502 17.2902 16.1392 17.2541 15.5371C17.1744 14.2125 17.221 13.2903 15.7673 13.0127C14.0702 12.6886 10.5255 12.8366 8.99711 13.8097C7.5754 14.7149 7.57696 16.6875 7.63852 18.1814C7.69696 19.6016 7.64665 20.9894 7.76118 22.4074C7.81227 23.0411 7.74305 23.758 8.17962 24.2849C9.59258 25.9899 13.8485 25.2303 15.5946 24.5744C17.386 23.9013 17.7824 22.1488 17.7387 20.243C18.269 19.651 18.7713 19.0313 19.2458 18.4819C20.3901 17.1578 22.1393 15.7753 22.6529 14.0788C22.7824 13.6507 22.3463 13.1952 21.911 13.3369ZM16.0777 22.6042C15.4668 23.7485 14.2373 23.5113 13.2466 23.5703C12.4448 23.6181 9.62524 24.1695 9.05336 23.3049C8.90602 23.082 8.97368 22.0169 8.93868 21.6338C8.85571 20.7253 8.88368 19.8435 8.87743 18.9324C8.86633 17.3186 8.32258 15.228 10.3409 14.7991C11.7932 14.4905 13.4441 14.3432 14.9323 14.1807C15.7105 14.2294 15.7773 14.3661 15.9882 15.088C16.3152 16.2069 16.2316 17.6997 16.2104 19.0041C15.904 19.3689 15.4193 19.9708 15.0198 20.2872C13.9454 19.3002 13.0412 18.0486 11.7848 17.3361C11.7857 17.3432 11.7866 17.3502 11.7874 17.3572C11.219 17.1171 10.2351 17.6336 10.9029 18.4789C11.7976 19.6113 12.6745 20.4839 13.6888 21.4991C14.4644 22.2753 15.0313 22.5914 16.0105 21.8761C16.0969 21.8128 16.1815 21.7416 16.2668 21.673C16.2499 22.0419 16.1984 22.3786 16.0777 22.6042Z" fill="#FF4F4F"/>
<path d="M23.2699 27.4283C21.0707 28.4102 19.2412 30.6666 17.5303 32.5205C17.4179 31.6574 17.2951 30.8418 17.2543 30.164C17.1746 28.8394 17.2212 27.9171 15.7674 27.6396C14.0704 27.3155 10.5257 27.4633 8.9973 28.4365C7.57558 29.3416 7.57714 31.3143 7.63871 32.8082C7.69714 34.2282 7.64683 35.616 7.76136 37.0338C7.81246 37.6675 7.74324 38.3844 8.1798 38.9114C9.59277 40.6164 13.8487 39.8569 15.5948 39.201C17.2937 38.5627 17.7373 36.9535 17.7417 35.1636C18.5156 34.3893 19.2401 33.5127 19.9685 32.7854C21.3757 31.3801 23.1652 29.9832 23.9865 28.1447C24.2059 27.653 23.7624 27.2085 23.2699 27.4283ZM16.0779 37.2308C15.467 38.375 14.2374 38.1379 13.2468 38.1969C12.4449 38.2447 9.62542 38.7961 9.05355 37.9314C8.9062 37.7086 8.97386 36.6435 8.93886 36.2604C8.85589 35.3519 8.88386 34.47 8.87761 33.559C8.86636 31.9451 8.32261 29.8544 10.341 29.4255C11.7934 29.1169 13.4443 28.9696 14.9324 28.8071C15.7107 28.8558 15.7774 28.9926 15.9884 29.7144C16.3432 30.9286 16.2134 32.5866 16.2059 33.9621C15.9464 34.2546 15.666 34.5463 15.5443 34.5705C14.9209 34.694 14.3462 33.8319 14.0343 33.4271C13.4762 32.7027 13.1948 32.066 12.3149 31.671C11.6671 31.3802 10.8028 32.2336 11.4765 32.7575C12.8057 33.791 13.9559 37.7393 16.259 36.4C16.2376 36.7283 16.1871 37.0263 16.0779 37.2308Z" fill="#FF4F4F"/>
<path d="M17.2545 44.7905C17.1746 43.4661 17.2212 42.5438 15.7674 42.2661C14.0704 41.942 10.5257 42.09 8.9973 43.0631C7.57558 43.9683 7.57714 45.9409 7.63871 47.4347C7.69714 48.8547 7.64683 50.2425 7.76136 51.6603C7.81246 52.2941 7.74324 53.0109 8.1798 53.538C9.59277 55.243 13.8487 54.4834 15.5948 53.8275C18.9423 52.5698 17.4201 47.5438 17.2545 44.7905ZM16.0779 51.8573C15.467 53.0014 14.2374 52.7644 13.2468 52.8234C12.4449 52.8712 9.62542 53.4226 9.05355 52.5578C8.9062 52.335 8.97386 51.2698 8.93886 50.8869C8.85589 49.9784 8.88386 49.0966 8.87761 48.1856C8.86636 46.5717 8.32261 44.4809 10.341 44.0522C11.7934 43.7436 13.4443 43.5963 14.9324 43.4338C15.7107 43.4825 15.7774 43.6192 15.9884 44.3411C16.3973 45.7398 16.1623 47.7286 16.2128 49.1945C16.2368 49.8934 16.396 51.2614 16.0779 51.8573Z" fill="#FF4F4F"/>
<path d="M17.2545 59.4173C17.1746 58.0926 17.2212 57.1702 15.7674 56.8926C14.0704 56.5685 10.5257 56.7165 8.9973 57.6896C7.57558 58.5948 7.57714 60.5674 7.63871 62.0613C7.69714 63.4813 7.64683 64.8691 7.76136 66.2871C7.81246 66.9208 7.74324 67.6377 8.1798 68.1647C9.59277 69.8697 13.8487 69.1102 15.5948 68.4543C18.9423 67.1966 17.4201 62.1705 17.2545 59.4173ZM16.0779 66.4838C15.467 67.6279 14.2374 67.3908 13.2468 67.4499C12.4449 67.4977 9.62542 68.0491 9.05355 67.1844C8.9062 66.9616 8.97386 65.8965 8.93886 65.5133C8.85589 64.6049 8.88386 63.723 8.87761 62.8119C8.86636 61.198 8.32261 59.1074 10.341 58.6785C11.7934 58.3699 13.4443 58.2226 14.9324 58.0601C15.7107 58.1088 15.7774 58.2455 15.9884 58.9674C16.3973 60.3662 16.1623 62.3549 16.2128 63.8208C16.2368 64.5199 16.396 65.8879 16.0779 66.4838Z" fill="#FF4F4F"/>
<path d="M51.0238 14.7811C49.0331 14.4677 46.8749 14.6124 44.8555 14.5739C42.7082 14.5332 40.5277 14.5563 38.3833 14.6686C34.0063 14.8983 29.6086 14.4133 25.2294 14.8443C24.7532 14.8908 24.7522 15.5388 25.2294 15.5858C29.5185 16.0078 34.0854 16.0294 38.3833 15.8057C42.498 15.5914 46.9994 16.2047 51.0238 15.2499C51.2455 15.1972 51.2655 14.8191 51.0238 14.7811Z" fill="#FF4F4F"/>
<path d="M51.0238 17.5736C49.0331 17.2602 46.8749 17.4049 44.8555 17.3664C42.7082 17.3256 40.5277 17.3488 38.3833 17.4611C34.0063 17.6906 29.6086 17.2056 25.2294 17.6367C24.7532 17.6836 24.7522 18.3314 25.2294 18.3785C29.5185 18.8005 34.0854 18.822 38.3833 18.5983C42.498 18.3841 46.9994 18.9974 51.0238 18.0425C51.2455 17.9899 51.2655 17.6117 51.0238 17.5736Z" fill="#FF4F4F"/>
<path d="M51.0238 20.3661C49.0331 20.0527 46.8749 20.1973 44.8555 20.1589C42.7082 20.1181 40.5277 20.1412 38.3833 20.2536C34.0063 20.4831 29.6086 19.9981 25.2294 20.4291C24.7532 20.4759 24.7522 21.1239 25.2294 21.1708C29.5185 21.5928 34.0854 21.6144 38.3833 21.3906C42.498 21.1764 46.9994 21.7897 51.0238 20.8348C51.2455 20.7823 51.2655 20.4041 51.0238 20.3661Z" fill="#FF4F4F"/>
<path d="M49.3008 29.7401C47.4415 29.4267 45.4252 29.5714 43.539 29.5329C41.533 29.4921 39.4962 29.5153 37.4932 29.6276C33.4045 29.8571 29.2966 29.3721 25.2059 29.8031C24.761 29.8501 24.7602 30.4981 25.2059 30.5449C29.2123 30.967 33.4784 30.9885 37.4932 30.7648C41.3368 30.5506 45.5416 31.1638 49.3008 30.209C49.5079 30.1564 49.5266 29.7782 49.3008 29.7401Z" fill="#FF4F4F"/>
<path d="M49.3008 32.5326C47.4415 32.2192 45.4252 32.3638 43.539 32.3254C41.533 32.2846 39.4962 32.3077 37.4932 32.4201C33.4045 32.6496 29.2966 32.1646 25.2059 32.5956C24.761 32.6424 24.7602 33.2904 25.2059 33.3373C29.2123 33.7593 33.4784 33.7809 37.4932 33.5571C41.3368 33.3429 45.5416 33.9562 49.3008 33.0013C49.5079 32.9487 49.5266 32.5706 49.3008 32.5326Z" fill="#FF4F4F"/>
<path d="M49.3008 35.3251C47.4414 35.0117 45.4252 35.1564 43.5389 35.1179C41.533 35.0771 39.4961 35.1001 37.4932 35.2126C33.4044 35.4421 29.2966 34.9571 25.2059 35.3882C24.761 35.4351 24.7601 36.0831 25.2059 36.13C29.2123 36.552 33.4784 36.5735 37.4932 36.3498C41.3368 36.1356 45.5416 36.7489 49.3008 35.794C49.5078 35.7414 49.5266 35.3632 49.3008 35.3251Z" fill="#FF4F4F"/>
<path d="M41.8707 45.8959C40.5768 45.5825 39.1739 45.7272 37.8614 45.6887C36.4656 45.6479 35.0482 45.6709 33.6545 45.7834C30.8093 46.0129 27.9509 45.5279 25.1045 45.959C24.795 46.0059 24.7944 46.6539 25.1045 46.7007C27.8923 47.1228 30.8609 47.1443 33.6545 46.9206C36.329 46.7064 39.2549 47.3196 41.8707 46.3648C42.0148 46.3122 42.0279 45.934 41.8707 45.8959Z" fill="#FF4F4F"/>
<path d="M41.8707 48.6884C40.5768 48.3749 39.1739 48.5196 37.8614 48.4812C36.4656 48.4404 35.0482 48.4635 33.6545 48.5759C30.8093 48.8054 27.9509 48.3204 25.1045 48.7515C24.795 48.7984 24.7944 49.4463 25.1045 49.4932C27.8923 49.9152 30.8609 49.9368 33.6545 49.713C36.329 49.4988 39.2549 50.1121 41.8707 49.1573C42.0148 49.1046 42.0279 48.7265 41.8707 48.6884Z" fill="#FF4F4F"/>
<path d="M41.8707 51.4808C40.5768 51.1674 39.1739 51.3121 37.8614 51.2736C36.4656 51.2329 35.0482 51.256 33.6545 51.3683C30.8093 51.598 27.9509 51.1129 25.1045 51.544C24.795 51.5908 24.7944 52.2388 25.1045 52.2857C27.8923 52.7077 30.8609 52.7293 33.6545 52.5057C36.329 52.2915 39.2549 52.9048 41.8707 51.9499C42.0148 51.8969 42.0279 51.5188 41.8707 51.4808Z" fill="#FF4F4F"/>
<path d="M41.8707 59.7582C40.5768 59.4447 39.1739 59.5894 37.8614 59.551C36.4656 59.5102 35.0482 59.5333 33.6545 59.6457C30.8093 59.8752 27.9509 59.3902 25.1045 59.8211C24.795 59.868 24.7944 60.516 25.1045 60.5629C27.8923 60.9849 30.8609 61.0065 33.6545 60.7827C36.329 60.5685 39.2549 61.1818 41.8707 60.2269C42.0148 60.1744 42.0279 59.7961 41.8707 59.7582Z" fill="#FF4F4F"/>
<path d="M41.8707 62.5507C40.5768 62.2372 39.1739 62.3819 37.8614 62.3435C36.4656 62.3027 35.0482 62.3258 33.6545 62.4382C30.8093 62.6677 27.9509 62.1827 25.1045 62.6138C24.795 62.6607 24.7944 63.3086 25.1045 63.3555C27.8923 63.7775 30.8609 63.7991 33.6545 63.5754C36.329 63.3611 39.2549 63.9744 41.8707 63.0196C42.0148 62.9669 42.0279 62.5888 41.8707 62.5507Z" fill="#FF4F4F"/>
<path d="M41.8707 65.3427C40.5768 65.0292 39.1739 65.1739 37.8614 65.1355C36.4656 65.0947 35.0482 65.1178 33.6545 65.2302C30.8093 65.4597 27.9509 64.9747 25.1045 65.4058C24.795 65.4526 24.7944 66.1006 25.1045 66.1475C27.8923 66.5695 30.8609 66.5911 33.6545 66.3673C36.329 66.1531 39.2549 66.7664 41.8707 65.8116C42.0148 65.7589 42.0279 65.3808 41.8707 65.3427Z" fill="#FF4F4F"/>
</g>
<defs>
<clipPath id="clip0">
<rect width="80" height="80" fill="white"/>
</clipPath>
</defs>
</svg>
