<svg width="80" height="80" viewBox="0 0 80 80" fill="none" xmlns="http://www.w3.org/2000/svg">
<g clip-path="url(#clip0)">
<path d="M78.6961 3.26685C77.9461 3.42029 77.0878 3.82451 76.7524 3.98654C74.5239 5.06217 71.9614 5.72795 69.605 6.39155C68.0872 6.81905 66.5795 7.25499 65.1306 7.77952C60.4628 9.46968 55.7237 10.8716 51.0365 12.5037C46.4993 14.0837 42.0012 15.8186 37.4151 17.2531C32.782 18.7022 28.3463 20.7752 23.7601 22.3674C19.0683 23.996 14.2965 25.4177 9.6352 27.13C7.33269 27.9758 4.92769 28.5327 2.65456 29.4546C1.71378 29.8363 0.110648 30.1957 0.00502313 31.4432C-0.0901333 32.5675 1.18081 33.3972 1.93596 33.9804C3.81503 35.4318 5.74878 36.8214 7.63738 38.26C9.31067 39.5346 11.2363 40.4632 13.086 41.4488C14.993 42.4649 16.8632 43.5204 17.3591 45.7021C18.6213 51.2552 18.7929 57.028 19.4627 62.6602C19.8035 65.5265 20.2621 68.3715 20.5163 71.2484C20.6446 72.7 20.4082 75.3659 21.6043 76.4773C21.8501 76.7057 22.188 76.8076 22.5066 76.7639C22.7369 76.8293 22.9951 76.792 23.1819 76.5973C24.643 75.0743 25.8476 73.2159 27.1487 71.5578C28.7171 69.559 30.2973 67.556 31.7366 65.4615C33.1929 63.3423 34.6157 61.2776 36.1981 59.2537C36.672 58.6474 37.3977 57.8231 37.8381 56.9912C40.461 58.6382 43.1879 60.167 45.9026 61.5952C48.0651 62.7331 50.8854 65.5101 52.8987 62.7451C55.2923 59.4579 56.7315 55.2387 58.4883 51.5907C62.0059 44.2857 65.0862 36.7679 68.4911 29.4107C70.4155 25.2524 72.6522 21.2236 74.5967 17.0655C75.5445 15.0386 76.4425 12.9775 77.2697 10.8973C78.1313 8.73124 79.3122 6.61639 79.9241 4.38092C80.2371 3.23732 79.5342 3.09545 78.6961 3.26685ZM18.0671 42.2755C16.5996 40.9557 14.8996 40.0625 13.1721 39.1319C11.106 38.019 9.27129 36.7779 7.39051 35.3896C6.49082 34.7255 5.58753 34.0657 4.68769 33.4014C4.18503 33.0303 3.01237 32.411 2.44815 31.7374C3.46659 31.1296 5.10081 30.8694 6.08144 30.5696C7.87379 30.0214 9.62239 29.4139 11.3846 28.7789C14.7543 27.5644 18.1799 26.4391 21.5783 25.3025C28.2855 23.0592 34.8654 20.4142 41.5224 18.027C47.8984 15.7406 54.3272 13.6598 60.7387 11.482C63.9687 10.385 67.1361 9.10468 70.3633 7.98983C68.1811 9.31765 66.0548 10.7489 63.8598 12.0577C59.0559 14.9219 54.3143 18.0189 49.6873 21.1839C44.4784 24.7471 39.1332 28.0889 34.0306 31.8139C28.9171 35.5468 23.6174 39.1549 18.2026 42.4229C18.1558 42.3751 18.1174 42.321 18.0671 42.2755ZM22.6116 71.0825C22.5424 70.2684 22.4746 69.455 22.3768 68.642C22.0724 66.1117 21.6821 63.5917 21.4227 61.0567C20.9294 56.2352 20.4379 51.4596 19.6646 46.669C19.5068 45.6913 19.3712 44.5627 18.9641 43.5993C21.5268 42.8451 23.8269 41.1272 25.9848 39.6449C28.7643 37.7357 31.6256 35.9413 34.3587 33.9668C39.5234 30.2355 44.9975 26.9685 50.1421 23.228C52.5422 21.4831 55.0897 19.8322 57.6523 18.3403C59.9712 16.9903 62.0609 15.3097 64.3931 13.9772C65.1737 13.5312 65.935 13.0498 66.6895 12.5561C65.1417 13.8689 63.6086 15.1994 62.0772 16.5275C59.5636 18.7074 56.8789 20.677 54.31 22.7919C51.5547 25.0603 48.9479 27.516 46.2698 29.8767C41.852 33.771 37.7685 38.04 33.3463 41.9026C32.3313 42.7891 31.3259 43.7969 30.3616 44.7411C29.4502 45.634 28.2401 46.7588 27.4915 47.8004C26.6293 49.0001 26.6002 50.2921 26.5924 51.6088C26.4152 52.4905 26.3234 53.3987 26.211 54.0838C25.8404 56.3443 25.3682 58.5846 24.9646 60.8396C24.5176 63.3374 23.9583 65.7796 23.313 68.2328C23.0644 69.1793 22.8352 70.1303 22.6116 71.0825ZM34.2235 58.5556C32.7156 60.456 31.4276 62.4781 30.0573 64.4798C28.6449 66.5428 27.0866 68.507 25.5804 70.5014C25.2573 70.929 24.9149 71.3545 24.5723 71.7839C25.0938 69.6134 25.7132 67.4668 26.2015 65.2893C27.1446 61.0823 27.6174 56.7629 28.6132 52.5719C28.6999 52.2069 28.8012 51.353 28.9912 51.0937C29.0326 51.0371 29.0604 50.9915 29.0818 50.9513C29.1071 50.9674 29.1374 50.9832 29.1801 50.9977C29.6485 51.1566 30.354 51.9626 30.749 52.2534C32.1806 53.3079 33.7096 54.2507 35.1799 55.254C35.4845 55.4616 35.801 55.6582 36.1095 55.8623C35.3676 56.6448 34.8176 57.8068 34.2235 58.5556ZM75.8034 8.91483C75.0161 11.0061 74.0859 13.0216 73.1989 15.0694C71.5439 18.8903 69.652 22.718 67.6325 26.3583C63.9764 32.9485 61.3072 40.1633 58.2825 47.0562C56.6284 50.8254 54.7958 54.6035 52.9145 58.2626C52.5281 59.0141 52.1725 60.0487 51.6042 60.6981C50.7225 61.706 49.969 61.4996 48.8514 60.8723C47.2404 59.9682 45.5704 59.1606 43.9859 58.202C40.6101 56.1598 37.3035 54.0712 34.011 51.9093C32.6685 51.0279 31.4523 49.9701 30.1323 49.0849C29.8593 48.9018 29.5677 48.7694 29.274 48.6935C29.3471 48.5912 29.424 48.4902 29.5087 48.3923C31.2626 46.363 33.3937 44.4788 35.4413 42.763C37.3662 41.1501 38.9904 39.2152 40.8298 37.5043C43.1812 35.3171 45.4578 33.0994 47.8667 30.973C50.3743 28.7596 52.8267 26.4772 55.3861 24.3261C57.9115 22.2036 60.5897 20.277 63.0806 18.1127C67.3091 14.4386 71.7722 10.9745 75.9627 7.26405C76.2266 7.12061 76.4852 6.97202 76.7297 6.8103C76.4011 7.50405 76.0733 8.19858 75.8034 8.91483Z" fill="#FF4F4F"/>
</g>
<defs>
<clipPath id="clip0">
<rect width="80" height="80" fill="white"/>
</clipPath>
</defs>
</svg>
