<svg width="80" height="80" viewBox="0 0 80 80" fill="none" xmlns="http://www.w3.org/2000/svg">
<path d="M75.4456 25.8306C75.7297 23.8721 75.6327 21.7765 75.6666 19.8151C75.6861 18.6918 75.6896 17.5838 75.7385 16.4705C75.7871 15.3635 75.9677 14.1774 75.931 13.0498C76.4039 12.9519 76.8269 12.803 77.155 12.5732C78.3185 11.758 77.9316 9.57271 77.928 8.37365C77.9217 6.22099 75.8921 6.59864 74.2467 6.49677C71.3742 6.3188 68.4617 6.26552 65.583 6.20896C59.2042 6.08349 52.8311 6.03692 46.4486 6.03974C34.4029 6.04521 22.3074 5.6063 10.2697 6.08739C8.00661 5.8563 5.49364 5.94192 3.27004 6.11021C1.39472 6.25208 1.90738 9.05099 1.78722 10.3862C1.63332 12.0968 2.6366 12.4154 3.94223 12.4747C3.62801 14.5626 3.82973 16.8277 3.80317 18.9141C3.7766 20.9926 3.44895 23.3031 3.81363 25.374C3.6316 25.3863 3.44863 25.3982 3.27004 25.4118C1.39472 25.5537 1.90738 28.3526 1.78722 29.6876C1.59722 31.7998 3.17035 31.7903 4.89942 31.7904C7.81677 31.7906 10.7196 32.3046 13.644 32.3345C19.9019 32.3984 26.1785 32.2507 32.4262 31.9751C38.9946 31.6853 45.6018 31.8581 52.1753 31.8551C58.3489 31.8521 64.5027 32.4415 70.6725 32.3823C72.323 32.3665 75.6739 32.9126 77.155 31.8749C78.3185 31.0598 77.9316 28.8743 77.928 27.6754C77.9233 26.0315 76.7382 25.8637 75.4456 25.8306ZM3.33363 10.153C3.30707 9.61896 3.26254 8.29865 3.43879 7.58943C4.54817 7.46333 5.6602 7.39224 6.77364 7.31896C10.8361 7.48474 14.9427 7.41865 18.9969 7.43771C24.2366 7.4624 29.4776 7.40115 34.7165 7.50349C45.3396 7.71083 55.9717 7.35958 66.5886 7.7638C68.8214 7.8488 71.0569 7.96818 73.2908 8.02349C73.7625 8.03521 75.9603 7.85677 76.2946 8.1974C76.505 8.41193 76.4007 11.0196 76.2325 11.2185C75.5877 11.9813 72.4311 11.7091 71.3311 11.7099C68.7186 11.7116 66.1269 11.653 63.5198 11.5246C58.2801 11.2663 53.0529 11.144 47.8053 11.1412C42.4531 11.1382 37.0632 10.9857 31.717 11.2802C25.9426 11.5983 20.1371 11.5671 14.3526 11.574C11.6994 11.5771 9.09739 11.2785 6.45973 11.0543C5.3102 10.9566 3.40441 11.5815 3.33363 10.153ZM73.7922 25.7749C71.0669 25.6184 68.3103 25.5643 65.583 25.5107C63.4052 25.4679 61.228 25.4373 59.0511 25.4115C59.462 23.1904 59.1512 20.5563 59.1414 18.3773C59.1351 16.9904 59.067 15.5793 59.1791 14.1951C59.2159 13.7405 59.3658 13.2315 59.383 12.7463C63.1456 12.9113 66.9059 13.1165 70.6725 13.0804C71.5808 13.0716 73.0035 13.2321 74.3467 13.2062C73.8641 15.2352 73.988 17.5127 73.9344 19.5296C73.8806 21.5459 73.5508 23.7457 73.7922 25.7749ZM58.043 18.9819C58.0419 20.2277 57.9801 21.4677 57.9842 22.7127C57.987 23.6143 57.8203 24.5171 57.9094 25.3988C54.0904 25.3587 50.2712 25.3396 46.4487 25.3415C44.4715 25.3424 42.4929 25.3307 40.5135 25.3137C40.6462 23.3545 40.3954 21.2757 40.3317 19.3412C40.2567 17.0663 40.287 14.779 40.1925 12.5082C44.1884 12.4932 48.1881 12.5549 52.1756 12.553C54.2867 12.5521 56.3955 12.6221 58.5033 12.7099C58.4626 13.3848 58.1262 14.2729 58.0862 14.8812C57.997 16.2393 58.0439 17.6219 58.043 18.9819ZM39.3732 25.3035C34.3506 25.2551 29.3231 25.1776 24.2982 25.1663C24.439 23.3516 23.9712 21.1485 23.8054 19.4793C23.5937 17.348 23.7352 15.0858 23.3913 12.9708C26.4059 12.9068 29.4193 12.806 32.426 12.6732C34.7334 12.5713 37.0454 12.5285 39.3592 12.5132C39.2945 14.7982 39.2165 17.0409 39.2718 19.3412C39.301 20.5555 39.3018 21.7757 39.3473 22.989C39.3634 23.4171 39.4025 23.8438 39.4123 24.272C39.4159 24.4288 39.3381 24.9652 39.3732 25.3035ZM5.44692 18.5834C5.45473 16.5935 5.61536 14.4863 5.31598 12.4973C8.09317 12.5418 10.8588 13.0044 13.644 13.0327C16.6377 13.0633 19.6359 13.0429 22.6329 12.9857C22.0529 15.0626 22.5274 17.7438 22.7088 19.7673C22.8241 21.0527 22.9441 22.3462 23.0021 23.6352C23.0254 24.1523 22.9948 24.6666 23.0435 25.167C18.7816 25.1674 14.5219 25.2193 10.2697 25.3893C8.70317 25.2293 7.01833 25.2229 5.39114 25.2888C5.52332 23.0729 5.43801 20.8049 5.44692 18.5834ZM76.2325 30.5204C75.5877 31.2832 72.4311 31.011 71.3311 31.0118C68.7186 31.0135 66.1269 30.9551 63.5198 30.8265C58.2801 30.5682 53.0529 30.4459 47.8053 30.4431C42.4531 30.4401 37.0632 30.2876 31.717 30.5821C25.9426 30.9003 20.1371 30.869 14.3526 30.8759C11.6994 30.879 9.09739 30.5804 6.45973 30.3562C5.3102 30.2585 3.40441 30.8834 3.33363 29.4549C3.30707 28.921 3.2627 27.6009 3.43879 26.8915C4.54817 26.7654 5.6602 26.6943 6.77364 26.621C10.8361 26.7868 14.9427 26.7207 18.9969 26.7398C24.2366 26.7645 29.4776 26.7032 34.7165 26.8056C45.3396 27.0129 55.9717 26.6617 66.5886 27.0659C68.8214 27.1509 71.0569 27.2702 73.2908 27.3256C73.7625 27.337 75.9603 27.1585 76.2946 27.4992C76.505 27.7137 76.4007 30.3213 76.2325 30.5204Z" fill="#FF4F4F"/>
<path d="M8.40709 8.46925C8.40006 8.33519 8.38865 8.19003 8.29959 8.08941C8.26693 8.05238 8.16834 8.01691 8.03256 7.98706C7.52615 7.87566 6.50084 7.84191 6.42584 8.09425C6.24646 8.69769 6.44943 9.27723 6.45599 9.88129C6.45662 9.93363 6.4599 9.99254 6.4988 10.0282C6.53615 10.0624 6.59271 10.0619 6.64334 10.0596C7.13287 10.036 7.62225 10.0122 8.11162 9.98864C8.17881 9.98535 8.251 9.9802 8.30272 9.93754C8.35865 9.89145 8.37568 9.8141 8.38662 9.74254C8.45162 9.32223 8.42943 8.89394 8.40709 8.46925Z" fill="#FF4F4F"/>
<path d="M12.6765 8.49889C12.6694 8.36483 12.658 8.21968 12.5691 8.11921C12.5363 8.08217 12.4379 8.04671 12.3019 8.01686C11.7955 7.90546 10.7702 7.87171 10.6952 8.12389C10.5157 8.72733 10.7187 9.30702 10.7254 9.91093C10.7258 9.96343 10.7291 10.0225 10.768 10.058C10.8054 10.0922 10.8619 10.0917 10.9127 10.0894C11.4021 10.0658 11.8915 10.042 12.381 10.0184C12.4482 10.0151 12.5204 10.01 12.5721 9.96733C12.628 9.92124 12.6451 9.8439 12.6562 9.77233C12.7212 9.35202 12.6988 8.92374 12.6765 8.49889Z" fill="#FF4F4F"/>
<path d="M16.9455 8.52932C16.9385 8.39526 16.9271 8.2501 16.8381 8.14948C16.8053 8.11245 16.7069 8.07698 16.571 8.04714C16.0646 7.93573 15.0392 7.90198 14.9642 8.15417C14.7847 8.75761 14.9878 9.33714 14.9944 9.9412C14.995 9.9937 14.9983 10.0526 15.037 10.0882C15.0744 10.1225 15.131 10.122 15.1817 10.1196C15.6711 10.096 16.1605 10.0723 16.65 10.0487C16.7172 10.0454 16.7894 10.0403 16.8413 9.99761C16.8971 9.95151 16.9141 9.87417 16.9252 9.80261C16.9902 9.38229 16.9678 8.95401 16.9455 8.52932Z" fill="#FF4F4F"/>
<path d="M21.2148 8.55944C21.2077 8.42538 21.1963 8.28022 21.1074 8.17975C21.0746 8.14272 20.9762 8.10725 20.8402 8.07741C20.3338 7.966 19.3086 7.93225 19.2335 8.18444C19.054 8.78788 19.2569 9.36741 19.2636 9.97148C19.2641 10.024 19.2674 10.083 19.3063 10.1185C19.3438 10.1527 19.4004 10.1523 19.451 10.1498C19.9404 10.1262 20.4299 10.1024 20.9193 10.0788C20.9863 10.0755 21.0587 10.0704 21.1105 10.0277C21.1663 9.98164 21.1833 9.90429 21.1944 9.83273C21.2594 9.41241 21.2373 8.98413 21.2148 8.55944Z" fill="#FF4F4F"/>
<path d="M25.4839 8.58987C25.4767 8.45581 25.4655 8.31065 25.3764 8.21003C25.3436 8.17299 25.2452 8.13753 25.1092 8.10768C24.603 7.99628 23.5777 7.96253 23.5025 8.21471C23.323 8.81815 23.5261 9.39768 23.5327 10.0017C23.5333 10.0541 23.5366 10.1132 23.5753 10.1488C23.6128 10.183 23.6692 10.1825 23.72 10.1802C24.2094 10.1566 24.6989 10.1328 25.1883 10.1092C25.2555 10.106 25.3277 10.1008 25.3795 10.0582C25.4353 10.0121 25.4524 9.93472 25.4634 9.86315C25.5284 9.44284 25.5063 9.01456 25.4839 8.58987Z" fill="#FF4F4F"/>
<path d="M29.7531 8.61997C29.7461 8.48591 29.7347 8.34075 29.6456 8.24029C29.6128 8.20325 29.5144 8.16779 29.3785 8.13794C28.8722 8.02654 27.8467 7.99279 27.7717 8.24513C27.5922 8.84857 27.7953 9.4281 27.8019 10.0322C27.8024 10.0847 27.8056 10.1437 27.8445 10.1792C27.882 10.2134 27.9384 10.2129 27.9892 10.2106C28.4786 10.187 28.9681 10.1633 29.4575 10.1397C29.5247 10.1364 29.5969 10.1312 29.6488 10.0884C29.7045 10.0423 29.7217 9.96498 29.7327 9.89341C29.7977 9.4731 29.7755 9.04482 29.7531 8.61997Z" fill="#FF4F4F"/>
<path d="M34.0221 8.65026C34.0151 8.5162 34.0036 8.37104 33.9146 8.27057C33.8818 8.23354 33.7833 8.19807 33.6474 8.16823C33.1411 8.05682 32.1157 8.02307 32.0407 8.27526C31.8613 8.8787 32.0643 9.45823 32.0708 10.0623C32.0716 10.1148 32.0749 10.1739 32.1136 10.2093C32.1511 10.2435 32.2077 10.2431 32.2583 10.2407C32.7477 10.2171 33.2372 10.1934 33.7266 10.1698C33.7938 10.1665 33.866 10.1614 33.9177 10.1187C33.9735 10.0726 33.9907 9.99526 34.0016 9.9237C34.0666 9.50339 34.0444 9.07511 34.0221 8.65026Z" fill="#FF4F4F"/>
<path d="M38.2913 8.68069C38.2843 8.54663 38.2729 8.40147 38.184 8.30085C38.1512 8.26382 38.0527 8.22835 37.9168 8.1985C37.4104 8.0871 36.3851 8.05335 36.3101 8.30553C36.1307 8.90897 36.3337 9.48851 36.3402 10.0926C36.3407 10.1451 36.3441 10.2041 36.3829 10.2396C36.4204 10.2738 36.477 10.2733 36.5276 10.271C37.0171 10.2474 37.5065 10.2237 37.9959 10.2001C38.0631 10.1968 38.1352 10.1916 38.187 10.149C38.2427 10.1029 38.2599 10.0255 38.271 9.95397C38.3359 9.53366 38.3137 9.10538 38.2913 8.68069Z" fill="#FF4F4F"/>
<path d="M42.5604 8.71081C42.5534 8.57675 42.542 8.43159 42.4531 8.33112C42.4203 8.29409 42.3219 8.25862 42.1859 8.22878C41.6795 8.11737 40.6542 8.08362 40.5792 8.33581C40.3997 8.93925 40.6026 9.51878 40.6094 10.1228C40.61 10.1752 40.6133 10.2342 40.652 10.2697C40.6895 10.3039 40.7461 10.3035 40.7967 10.3011C41.2862 10.2775 41.7756 10.2538 42.265 10.2302C42.3322 10.2269 42.4044 10.2219 42.4561 10.1791C42.5119 10.133 42.529 10.0557 42.5401 9.98409C42.6051 9.56378 42.5828 9.1355 42.5604 8.71081Z" fill="#FF4F4F"/>
<path d="M46.8297 8.74075C46.8226 8.60669 46.8112 8.46153 46.7223 8.36091C46.6895 8.32387 46.5911 8.2884 46.4551 8.25856C45.9487 8.14715 44.9234 8.1134 44.8484 8.36559C44.6689 8.96903 44.872 9.54856 44.8785 10.1526C44.879 10.2053 44.8825 10.2642 44.9212 10.2998C44.9587 10.334 45.0153 10.3336 45.0659 10.3311C45.5554 10.3075 46.0448 10.2837 46.5342 10.2601C46.6014 10.2568 46.6736 10.2517 46.7253 10.209C46.7812 10.1629 46.7982 10.0856 46.8093 10.014C46.8743 9.59372 46.852 9.16544 46.8297 8.74075Z" fill="#FF4F4F"/>
<path d="M51.0989 8.77136C51.0917 8.63729 51.0804 8.49214 50.9914 8.39167C50.9586 8.35464 50.8601 8.31917 50.7242 8.28932C50.2178 8.17792 49.1925 8.14417 49.1175 8.39635C48.9379 8.99979 49.1411 9.57933 49.1476 10.1834C49.1482 10.2357 49.1515 10.2948 49.1904 10.3303C49.2279 10.3645 49.2843 10.364 49.335 10.3617C49.8245 10.3381 50.3139 10.3143 50.8033 10.2907C50.8704 10.2875 50.9426 10.2823 50.9944 10.2396C51.0503 10.1935 51.0673 10.1162 51.0784 10.0446C51.1434 9.62433 51.1212 9.19604 51.0989 8.77136Z" fill="#FF4F4F"/>
<path d="M55.3681 8.80163C55.3609 8.66757 55.3497 8.52241 55.2606 8.42194C55.2278 8.38491 55.1294 8.34944 54.9934 8.3196C54.487 8.20819 53.4617 8.17444 53.3867 8.42663C53.2072 9.03007 53.4103 9.6096 53.4168 10.2137C53.4175 10.2662 53.4208 10.3251 53.4595 10.3607C53.497 10.3949 53.5536 10.3944 53.6042 10.3921C54.0936 10.3685 54.5831 10.3448 55.0725 10.3212C55.1397 10.3179 55.2119 10.3127 55.2636 10.2701C55.3195 10.224 55.3365 10.1466 55.3476 10.0751C55.4126 9.65476 55.3905 9.22647 55.3681 8.80163Z" fill="#FF4F4F"/>
<path d="M59.6373 8.83189C59.6303 8.69782 59.6189 8.55267 59.5298 8.4522C59.497 8.41517 59.3986 8.3797 59.2626 8.34986C58.7562 8.23845 57.7309 8.2047 57.6559 8.45704C57.4764 9.06048 57.6795 9.64001 57.6861 10.2441C57.6865 10.2963 57.6898 10.3553 57.7287 10.3908C57.7662 10.425 57.8228 10.4245 57.8734 10.4222C58.3628 10.3986 58.8523 10.3749 59.3417 10.3513C59.4089 10.348 59.4811 10.3428 59.533 10.3002C59.5887 10.2541 59.6058 10.1767 59.6169 10.1052C59.6819 9.68486 59.6597 9.25657 59.6373 8.83189Z" fill="#FF4F4F"/>
<path d="M63.9064 8.86217C63.8993 8.72811 63.8879 8.58296 63.7989 8.48249C63.766 8.44546 63.6676 8.40999 63.5317 8.38014C63.0253 8.26874 62 8.23499 61.925 8.48717C61.7454 9.09061 61.9486 9.6703 61.9551 10.2742C61.9557 10.3264 61.959 10.3855 61.9978 10.4211C62.0353 10.4553 62.0918 10.4548 62.1425 10.4525C62.6318 10.4289 63.1214 10.4051 63.6107 10.3815C63.6779 10.3783 63.7501 10.3731 63.802 10.3305C63.8578 10.2844 63.8748 10.207 63.8859 10.1355C63.9509 9.71514 63.9287 9.28686 63.9064 8.86217Z" fill="#FF4F4F"/>
<path d="M68.1756 8.89212C68.1686 8.75805 68.1572 8.6129 68.0681 8.51227C68.0353 8.47524 67.9369 8.43977 67.8011 8.40993C67.2947 8.29852 66.2694 8.26477 66.1944 8.51696C66.0148 9.1204 66.218 9.69993 66.2245 10.304C66.2248 10.3566 66.2281 10.4157 66.267 10.4512C66.3045 10.4854 66.3611 10.4849 66.4117 10.4824C66.9012 10.4588 67.3906 10.4351 67.88 10.4115C67.9472 10.4082 68.0194 10.4031 68.0713 10.3604C68.127 10.3143 68.1441 10.237 68.1552 10.1654C68.2202 9.74508 68.198 9.3168 68.1756 8.89212Z" fill="#FF4F4F"/>
<path d="M72.4447 8.92222C72.4376 8.78816 72.4262 8.643 72.3372 8.54253C72.3044 8.5055 72.2059 8.47003 72.0701 8.44019C71.5637 8.32878 70.5384 8.29503 70.4634 8.54737C70.2839 9.15081 70.487 9.73035 70.4936 10.3344C70.494 10.3866 70.4973 10.4457 70.5361 10.4811C70.5736 10.5153 70.6301 10.5149 70.6808 10.5125C71.1703 10.4889 71.6597 10.4652 72.149 10.4416C72.2162 10.4383 72.2884 10.4332 72.3403 10.3905C72.3961 10.3444 72.4133 10.2671 72.4242 10.1955C72.4892 9.77519 72.467 9.34691 72.4447 8.92222Z" fill="#FF4F4F"/>
<path d="M8.407 27.7105C8.40012 27.5763 8.38871 27.4311 8.29965 27.3306C8.26699 27.2936 8.1684 27.2581 8.03262 27.2283C7.52621 27.1169 6.5009 27.0831 6.4259 27.3353C6.24652 27.9388 6.44949 28.5183 6.45605 29.1224C6.45652 29.175 6.4598 29.2339 6.49871 29.2695C6.53605 29.3038 6.59262 29.3033 6.64324 29.3008C7.13277 29.2772 7.62215 29.2534 8.11153 29.2299C8.17871 29.2266 8.2509 29.2214 8.30262 29.1788C8.35856 29.1327 8.37559 29.0553 8.38653 28.9838C8.45153 28.5634 8.42934 28.1352 8.407 27.7105Z" fill="#FF4F4F"/>
<path d="M12.6763 27.741C12.6693 27.6067 12.6579 27.4615 12.569 27.3609C12.5361 27.3239 12.4377 27.2884 12.3018 27.2585C11.7954 27.1471 10.77 27.1134 10.695 27.3657C10.5155 27.9692 10.7185 28.5487 10.7252 29.1528C10.7258 29.2054 10.7291 29.2643 10.7679 29.3C10.8052 29.3342 10.8618 29.3337 10.9125 29.3314C11.4019 29.3078 11.8913 29.284 12.3808 29.2604C12.448 29.2571 12.5202 29.252 12.5719 29.2093C12.6279 29.1632 12.6449 29.0859 12.656 29.0143C12.721 28.594 12.6986 28.1657 12.6763 27.741Z" fill="#FF4F4F"/>
<path d="M16.9455 27.7712C16.9385 27.6368 16.9271 27.4916 16.8381 27.3912C16.8053 27.3541 16.7069 27.3187 16.571 27.2888C16.0646 27.1774 15.0392 27.1437 14.9642 27.3959C14.7847 27.9993 14.9878 28.579 14.9944 29.1829C14.995 29.2356 14.9983 29.2946 15.037 29.3301C15.0744 29.3643 15.131 29.3638 15.1817 29.3615C15.6711 29.3379 16.1605 29.3142 16.65 29.2906C16.7172 29.2873 16.7894 29.2823 16.8413 29.2395C16.8971 29.1934 16.9141 29.116 16.9252 29.0445C16.9902 28.6241 16.9678 28.1959 16.9455 27.7712Z" fill="#FF4F4F"/>
<path d="M21.2146 27.8015C21.2075 27.6672 21.1963 27.5221 21.1072 27.4215C21.0744 27.3844 20.976 27.349 20.84 27.3191C20.3336 27.2077 19.3085 27.174 19.2333 27.4261C19.0538 28.0296 19.2567 28.6091 19.2635 29.2132C19.2641 29.2658 19.2674 29.3247 19.3061 29.3604C19.3436 29.3946 19.4002 29.3941 19.4508 29.3918C19.9402 29.3682 20.4297 29.3444 20.9191 29.3208C20.9861 29.3176 21.0585 29.3124 21.1104 29.2697C21.1661 29.2236 21.1832 29.1463 21.1943 29.0747C21.2593 28.6544 21.2371 28.2261 21.2146 27.8015Z" fill="#FF4F4F"/>
<path d="M25.4839 27.8316C25.4767 27.6974 25.4653 27.5522 25.3764 27.4517C25.3436 27.4147 25.2452 27.3792 25.1092 27.3494C24.603 27.238 23.5777 27.2042 23.5025 27.4564C23.323 28.0599 23.5261 28.6394 23.5327 29.2434C23.5333 29.2961 23.5366 29.3552 23.5753 29.3906C23.6128 29.4249 23.6692 29.4244 23.72 29.422C24.2094 29.3984 24.6989 29.3747 25.1883 29.3511C25.2555 29.3478 25.3277 29.3427 25.3795 29.3C25.4353 29.2539 25.4524 29.1766 25.4634 29.105C25.5284 28.6847 25.5063 28.2564 25.4839 27.8316Z" fill="#FF4F4F"/>
<path d="M29.7531 27.8618C29.7461 27.7278 29.7347 27.5825 29.6456 27.482C29.6128 27.445 29.5143 27.4095 29.3784 27.3797C28.8721 27.2682 27.8467 27.2345 27.7717 27.4867C27.5921 28.0901 27.7953 28.6697 27.8018 29.2737C27.8023 29.3264 27.8056 29.3854 27.8445 29.4209C27.882 29.4551 27.9384 29.4546 27.9892 29.4521C28.4785 29.4286 28.9681 29.4048 29.4575 29.3812C29.5246 29.3779 29.5968 29.3728 29.6487 29.3301C29.7045 29.284 29.7217 29.2067 29.7326 29.1351C29.7976 28.7148 29.7754 28.2865 29.7531 27.8618Z" fill="#FF4F4F"/>
<path d="M34.0221 27.8923C34.0151 27.7581 34.0037 27.6129 33.9148 27.5123C33.882 27.4752 33.7835 27.4398 33.6476 27.4099C33.1413 27.2985 32.1159 27.2648 32.0409 27.517C31.8615 28.1204 32.0644 28.6999 32.071 29.304C32.0715 29.3566 32.0748 29.4157 32.1137 29.4512C32.1512 29.4854 32.2077 29.4849 32.2584 29.4826C32.7477 29.459 33.2373 29.4352 33.7266 29.4116C33.7938 29.4084 33.866 29.4032 33.9177 29.3606C33.9735 29.3145 33.9907 29.2371 34.0016 29.1656C34.0666 28.7452 34.0445 28.317 34.0221 27.8923Z" fill="#FF4F4F"/>
<path d="M38.2913 27.9225C38.2843 27.7882 38.2729 27.643 38.184 27.5425C38.1512 27.5055 38.0527 27.47 37.9168 27.4402C37.4104 27.3288 36.3851 27.295 36.3101 27.5472C36.1307 28.1507 36.3337 28.7304 36.3402 29.3343C36.3407 29.3869 36.3441 29.4458 36.3829 29.4815C36.4204 29.5157 36.477 29.5152 36.5276 29.5129C37.0171 29.4893 37.5065 29.4655 37.9959 29.4419C38.0631 29.4386 38.1352 29.4335 38.187 29.3908C38.2427 29.3447 38.2599 29.2674 38.271 29.1958C38.3359 28.7755 38.3137 28.3472 38.2913 27.9225Z" fill="#FF4F4F"/>
<path d="M42.5604 27.953C42.5534 27.8186 42.542 27.6734 42.4531 27.5728C42.4203 27.5358 42.3219 27.5003 42.1859 27.4705C41.6795 27.3591 40.6542 27.3253 40.5792 27.5776C40.3997 28.1811 40.6026 28.7606 40.6094 29.3647C40.6098 29.4173 40.6133 29.4764 40.652 29.5119C40.6895 29.5461 40.7461 29.5456 40.7967 29.5433C41.2862 29.5197 41.7756 29.4959 42.265 29.4723C42.3322 29.469 42.4044 29.4639 42.4561 29.4212C42.5119 29.3751 42.529 29.2978 42.5401 29.2262C42.6051 28.8059 42.5828 28.3776 42.5604 27.953Z" fill="#FF4F4F"/>
<path d="M46.8297 27.9826C46.8226 27.8482 46.8112 27.7031 46.7223 27.6026C46.6895 27.5656 46.5911 27.5301 46.4551 27.5003C45.9487 27.3889 44.9234 27.3551 44.8484 27.6073C44.6689 28.2107 44.872 28.7904 44.8785 29.3943C44.879 29.447 44.8825 29.506 44.9212 29.5415C44.9587 29.5757 45.0153 29.5753 45.0659 29.5729C45.5554 29.5493 46.0448 29.5256 46.5342 29.502C46.6014 29.4987 46.6736 29.4935 46.7253 29.4509C46.7812 29.4048 46.7982 29.3274 46.8093 29.2559C46.8743 28.8356 46.852 28.4073 46.8297 27.9826Z" fill="#FF4F4F"/>
<path d="M51.0987 28.0129C51.0917 27.8787 51.0804 27.7335 50.9914 27.6329C50.9586 27.5958 50.8601 27.5604 50.7242 27.5305C50.2178 27.4191 49.1925 27.3854 49.1175 27.6376C48.9379 28.241 49.1411 28.8205 49.1476 29.4246C49.1481 29.4773 49.1515 29.5363 49.1903 29.5718C49.2278 29.606 49.2842 29.6055 49.3348 29.6032C49.8243 29.5796 50.3137 29.5558 50.8031 29.5323C50.8703 29.529 50.9425 29.5238 50.9942 29.4812C51.0501 29.4351 51.0672 29.3577 51.0783 29.2862C51.1433 28.8658 51.1211 28.4376 51.0987 28.0129Z" fill="#FF4F4F"/>
<path d="M55.3681 28.0432C55.3609 27.9088 55.3495 27.7636 55.2606 27.6632C55.2278 27.6261 55.1294 27.5907 54.9934 27.5608C54.487 27.4494 53.4617 27.4157 53.3867 27.6678C53.2072 28.2713 53.4103 28.851 53.4168 29.4549C53.4175 29.5075 53.4208 29.5666 53.4595 29.6021C53.497 29.6363 53.5536 29.6358 53.6042 29.6335C54.0936 29.6099 54.5831 29.5861 55.0725 29.5625C55.1397 29.5592 55.2119 29.5541 55.2636 29.5114C55.3195 29.4653 55.3365 29.388 55.3476 29.3164C55.4126 28.8961 55.3905 28.4678 55.3681 28.0432Z" fill="#FF4F4F"/>
<path d="M59.6372 28.0734C59.6301 27.9392 59.6187 27.7941 59.5297 27.6934C59.4968 27.6564 59.3984 27.6209 59.2625 27.5911C58.7561 27.4797 57.7307 27.4459 57.6557 27.6981C57.4762 28.3015 57.6793 28.8812 57.6859 29.4851C57.6865 29.5378 57.6898 29.5969 57.7285 29.6323C57.766 29.6665 57.8226 29.6661 57.8732 29.6637C58.3626 29.6401 58.8521 29.6164 59.3415 29.5928C59.4087 29.5895 59.4809 29.5844 59.5328 29.5417C59.5886 29.4956 59.6056 29.4183 59.6167 29.3467C59.6817 28.9264 59.6595 28.4981 59.6372 28.0734Z" fill="#FF4F4F"/>
<path d="M63.9064 28.1037C63.8992 27.9693 63.8878 27.8242 63.7989 27.7237C63.766 27.6867 63.6676 27.6512 63.5317 27.6213C63.0253 27.5099 62 27.4762 61.925 27.7285C61.7454 28.332 61.9486 28.9115 61.9551 29.5156C61.9557 29.5682 61.959 29.6271 61.9978 29.6627C62.0353 29.697 62.0918 29.6965 62.1425 29.6942C62.6318 29.6706 63.1214 29.6468 63.6107 29.6232C63.6779 29.6199 63.7501 29.6148 63.802 29.572C63.8578 29.5259 63.8748 29.4485 63.8859 29.377C63.9509 28.9567 63.9287 28.5284 63.9064 28.1037Z" fill="#FF4F4F"/>
<path d="M68.1756 28.1338C68.1684 27.9998 68.157 27.8546 68.0679 27.754C68.0351 27.7169 67.9367 27.6815 67.8009 27.6516C67.2945 27.5402 66.2692 27.5065 66.1942 27.7587C66.0147 28.3621 66.2178 28.9418 66.2243 29.5457C66.225 29.5983 66.2282 29.6574 66.267 29.6929C66.3045 29.7271 66.3611 29.7266 66.4117 29.7243C66.9012 29.7007 67.3906 29.6769 67.88 29.6534C67.9472 29.6501 68.0193 29.6449 68.0712 29.6023C68.127 29.5562 68.144 29.4788 68.1551 29.4073C68.2201 28.9869 68.1979 28.5587 68.1756 28.1338Z" fill="#FF4F4F"/>
<path d="M72.4448 28.1642C72.4375 28.03 72.4261 27.8849 72.3372 27.7842C72.3043 27.7472 72.2059 27.7117 72.0701 27.6819C71.5637 27.5705 70.5384 27.5367 70.4634 27.7889C70.2839 28.3924 70.487 28.9719 70.4936 29.576C70.494 29.6286 70.4973 29.6877 70.5362 29.7232C70.5737 29.7574 70.6303 29.7569 70.6809 29.7546C71.1704 29.731 71.6598 29.7074 72.1492 29.6836C72.2164 29.6804 72.2886 29.6752 72.3404 29.6325C72.3962 29.5864 72.4134 29.5091 72.4243 29.4375C72.4893 29.0172 72.4672 28.5889 72.4448 28.1642Z" fill="#FF4F4F"/>
<path d="M78.6703 54.2641C78.3914 53.9969 78.0448 53.8088 77.6731 53.6802C77.2531 53.5351 76.8006 53.4663 76.3757 53.4462C75.8929 53.4232 75.1217 53.7777 74.6948 53.5944C73.8251 53.2208 74.2375 50.7755 74.2265 50.048C74.1867 47.3872 74.2145 44.7377 74.2145 42.0822C74.3106 40.9965 74.7778 40.8933 75.7339 40.951C78.3136 41.1065 80.3915 39.8221 79.9373 36.978C79.7467 35.7828 78.975 34.6836 77.7537 34.4032C77.1272 34.2593 76.4748 34.2971 75.8331 34.3357C70.9426 34.6297 65.9795 34.3203 61.0798 34.2874C56.1029 34.2539 51.1248 34.2675 46.1498 34.4244C45.4652 34.446 44.7454 34.5416 44.0627 34.4989C41.7996 34.2678 39.2866 34.3535 37.063 34.5218C35.1877 34.6636 35.7004 37.4625 35.5802 38.7975C35.4263 40.5085 36.4296 40.8271 37.7352 40.8865C37.421 42.9743 37.6227 45.2394 37.5962 47.3258C37.5696 49.4043 37.2419 51.7148 37.6065 53.7859C37.4244 53.7982 37.2415 53.8101 37.0629 53.8237C35.1876 53.9655 35.7002 56.7645 35.5801 58.0995C35.3901 60.2116 36.9632 60.2021 38.6923 60.2021C41.6096 60.2023 44.5124 60.7163 47.4368 60.7462C53.6948 60.8101 59.9712 60.6624 66.219 60.3868C69.7582 60.2306 73.3125 60.1887 76.8484 60.2559C77.6225 60.2706 78.4654 60.1246 78.9878 59.5531C79.5312 58.9582 79.5814 58.0748 79.5726 57.2691C79.5608 56.1937 79.4475 55.0074 78.6703 54.2641ZM37.1269 38.5646C37.1004 38.0307 37.056 36.7105 37.2321 36.0011C38.3415 35.875 39.4535 35.8039 40.5668 35.7307C44.6293 35.8964 48.7359 35.8303 52.7901 35.8494C58.0298 35.8741 63.2707 35.8128 68.5096 35.9152C71.3765 35.9711 74.2442 35.9835 77.1118 35.9838C77.7831 36.1308 78.2806 36.4927 78.3372 37.4488C78.3895 38.3322 78.1676 39.1172 77.267 39.3396C76.8084 39.4529 76.3451 39.4929 75.8807 39.52C72.4203 39.4982 68.9564 39.5021 65.5104 39.6919C59.736 40.01 53.9306 39.9788 48.146 39.9857C45.4929 39.9888 42.8909 39.6902 40.2532 39.466C39.1034 39.3682 37.1977 39.9932 37.1269 38.5646ZM73.1665 53.7154C68.1439 53.6669 63.1164 53.5894 58.0915 53.5782C58.2323 51.7635 57.7645 49.5604 57.5988 47.8912C57.3871 45.7599 57.5287 43.4977 57.1848 41.3827C60.1993 41.3186 63.2128 41.2179 66.2195 41.0852C68.5268 40.9833 70.8389 40.9405 73.1526 40.9252C73.0879 43.2102 73.0098 45.4529 73.0653 47.7532C73.0945 48.9676 73.0953 50.1877 73.1407 51.401C73.1568 51.8291 73.1959 52.2558 73.2057 52.684C73.2093 52.8407 73.1315 53.3771 73.1665 53.7154ZM39.2402 46.9949C39.248 45.0051 39.4087 42.8979 39.1093 40.9088C41.8865 40.9533 44.6521 41.416 47.4373 41.4444C50.431 41.475 53.4292 41.4544 56.4263 41.3974C55.8462 43.4744 56.3207 46.1557 56.5021 48.179C56.6174 49.4644 56.7374 50.7579 56.7954 52.0469C56.8187 52.564 56.7881 53.0784 56.837 53.5787C52.5751 53.5791 48.3154 53.631 44.0632 53.801C42.4966 53.641 40.8118 53.6346 39.1846 53.7005C39.3168 51.4843 39.2315 49.2165 39.2402 46.9949ZM77.8375 58.2076C77.6693 58.517 77.2792 58.6991 76.8404 58.8279C73.0609 58.8002 69.275 58.7862 65.5103 58.9937C59.7359 59.3118 53.9304 59.2806 48.1459 59.2874C45.4927 59.2905 42.8907 58.992 40.253 58.7677C39.1035 58.6699 37.1977 59.2949 37.1269 57.8665C37.1004 57.3326 37.056 56.0124 37.2321 55.303C38.3415 55.1769 39.4535 55.1057 40.5668 55.0326C44.6293 55.1984 48.7359 55.1323 52.7901 55.1513C58.0298 55.176 63.2707 55.1148 68.5096 55.2171C71.4807 55.2751 74.4526 55.2863 77.4247 55.2855C77.6198 55.4237 77.7568 55.664 77.8303 56.0963C77.9268 56.6643 78.1179 57.6913 77.8375 58.2076Z" fill="#FF4F4F"/>
<path d="M42.2005 36.8807C42.1935 36.7467 42.182 36.6015 42.093 36.501C42.0602 36.464 41.9617 36.4285 41.8258 36.3987C41.3195 36.2873 40.2941 36.2535 40.2191 36.5059C40.0397 37.1093 40.2427 37.6888 40.2492 38.2929C40.2499 38.3453 40.2531 38.4043 40.292 38.4398C40.3295 38.474 40.386 38.4735 40.4367 38.4712C40.9261 38.4476 41.4156 38.4238 41.905 38.4002C41.972 38.397 42.0444 38.3918 42.0961 38.349C42.1519 38.3029 42.1691 38.2256 42.18 38.154C42.245 37.7337 42.2228 37.3054 42.2005 36.8807Z" fill="#FF4F4F"/>
<path d="M46.4697 36.911C46.4626 36.7769 46.4512 36.6318 46.3622 36.5313C46.3295 36.4943 46.2309 36.4588 46.095 36.429C45.5887 36.3176 44.5632 36.2838 44.4882 36.536C44.3089 37.1394 44.5118 37.7191 44.5184 38.323C44.5192 38.3752 44.5225 38.4343 44.5612 38.4699C44.5987 38.5041 44.6553 38.5037 44.7059 38.5013C45.1953 38.4777 45.6848 38.454 46.1742 38.4304C46.2414 38.4271 46.3136 38.4221 46.3653 38.3793C46.4211 38.3332 46.4382 38.2558 46.4492 38.1843C46.5142 37.764 46.492 37.3357 46.4697 36.911Z" fill="#FF4F4F"/>
<path d="M50.7389 36.9409C50.7318 36.8069 50.7204 36.6617 50.6315 36.5611C50.5987 36.5241 50.5001 36.4886 50.3643 36.4588C49.8579 36.3474 48.8326 36.3136 48.7576 36.5658C48.5781 37.1692 48.7812 37.7488 48.7878 38.3528C48.7882 38.4053 48.7917 38.4644 48.8304 38.4999C48.8679 38.5341 48.9245 38.5336 48.9751 38.5313C49.4646 38.5077 49.954 38.4839 50.4434 38.4603C50.5106 38.457 50.5828 38.4519 50.6345 38.4092C50.6903 38.3631 50.7075 38.2858 50.7185 38.2142C50.7835 37.7939 50.7612 37.3656 50.7389 36.9409Z" fill="#FF4F4F"/>
<path d="M55.0079 36.9715C55.0009 36.8375 54.9895 36.6923 54.9006 36.5919C54.8678 36.5548 54.7693 36.5194 54.6334 36.4895C54.127 36.3781 53.1017 36.3444 53.0267 36.5965C52.8471 37.2 53.0501 37.7797 53.0568 38.3836C53.0575 38.4359 53.0607 38.495 53.0995 38.5305C53.137 38.5647 53.1935 38.5642 53.2442 38.5619C53.7337 38.5383 54.2231 38.5145 54.7125 38.4909C54.7796 38.4876 54.8518 38.4825 54.9035 38.4398C54.9593 38.3937 54.9765 38.3164 54.9876 38.2448C55.0526 37.8245 55.0303 37.3962 55.0079 36.9715Z" fill="#FF4F4F"/>
<path d="M59.2769 37.0018C59.2699 36.8678 59.2585 36.7226 59.1696 36.6221C59.1368 36.5851 59.0383 36.5496 58.9024 36.5198C58.396 36.4084 57.3708 36.3746 57.2957 36.6268C57.1162 37.2303 57.3193 37.8098 57.3258 38.4139C57.3265 38.4662 57.3299 38.5251 57.3687 38.5607C57.4062 38.5949 57.4627 38.5945 57.5132 38.5921C58.0027 38.5685 58.4921 38.5448 58.9814 38.5212C59.0486 38.5179 59.1208 38.5128 59.1725 38.4701C59.2285 38.424 59.2455 38.3467 59.2566 38.2751C59.3216 37.8548 59.2994 37.4265 59.2769 37.0018Z" fill="#FF4F4F"/>
<path d="M63.5463 37.0316C63.5392 36.8975 63.5279 36.7524 63.4388 36.6519C63.406 36.6149 63.3076 36.5794 63.1717 36.5496C62.6652 36.4382 61.6399 36.4044 61.5649 36.6567C61.3854 37.2602 61.5885 37.8397 61.5951 38.4438C61.5957 38.4961 61.599 38.5552 61.6379 38.5907C61.6754 38.6249 61.732 38.6244 61.7824 38.6221C62.272 38.5985 62.7613 38.5747 63.2507 38.5511C63.3179 38.5478 63.3901 38.5427 63.4418 38.4999C63.4977 38.4538 63.5148 38.3764 63.5259 38.3049C63.5909 37.8846 63.5687 37.4563 63.5463 37.0316Z" fill="#FF4F4F"/>
<path d="M67.8156 37.0619C67.8086 36.9278 67.7971 36.7827 67.7081 36.6822C67.6753 36.6452 67.5768 36.6097 67.4409 36.5799C66.9345 36.4684 65.9092 36.4347 65.8342 36.6869C65.6546 37.2903 65.8578 37.87 65.8643 38.4739C65.8649 38.5263 65.8682 38.5852 65.907 38.6208C65.9445 38.655 66.001 38.6545 66.0517 38.6522C66.541 38.6286 67.0306 38.6049 67.52 38.5813C67.5871 38.578 67.6593 38.5728 67.711 38.5302C67.767 38.4841 67.784 38.4067 67.7951 38.3352C67.8601 37.9149 67.8379 37.4866 67.8156 37.0619Z" fill="#FF4F4F"/>
<path d="M72.0848 37.0922C72.0778 36.9581 72.0664 36.8129 71.9773 36.7125C71.9445 36.6754 71.8461 36.64 71.7101 36.6101C71.2037 36.4987 70.1784 36.465 70.1034 36.7172C69.9239 37.3206 70.127 37.9001 70.1336 38.5042C70.134 38.5565 70.1373 38.6156 70.1762 38.6511C70.2137 38.6853 70.2703 38.6848 70.3209 38.6825C70.8103 38.6589 71.2998 38.6351 71.7892 38.6115C71.8564 38.6082 71.9286 38.6031 71.9804 38.5604C72.0362 38.5143 72.0533 38.437 72.0643 38.3654C72.1293 37.9451 72.1072 37.5168 72.0848 37.0922Z" fill="#FF4F4F"/>
<path d="M42.2003 56.1229C42.1935 55.9885 42.182 55.8434 42.093 55.7427C42.0602 55.7057 41.9617 55.6702 41.8258 55.6404C41.3195 55.529 40.2941 55.4952 40.2191 55.7476C40.0397 56.351 40.2427 56.9305 40.2492 57.5346C40.2497 57.5873 40.253 57.6462 40.2919 57.6818C40.3294 57.716 40.3858 57.7156 40.4366 57.7132C40.926 57.6896 41.4155 57.6659 41.9049 57.6423C41.9719 57.639 42.0442 57.6338 42.096 57.5912C42.1517 57.5451 42.1689 57.4677 42.1799 57.3962C42.2449 56.9759 42.2227 56.5476 42.2003 56.1229Z" fill="#FF4F4F"/>
<path d="M46.4696 56.1524C46.4625 56.0183 46.4511 55.8732 46.3622 55.7725C46.3296 55.7355 46.231 55.7 46.095 55.6702C45.5888 55.5588 44.5633 55.525 44.4883 55.7772C44.3089 56.3807 44.5119 56.9604 44.5185 57.5643C44.5189 57.6169 44.5224 57.676 44.5611 57.7114C44.5986 57.7457 44.6552 57.7452 44.7058 57.7429C45.1952 57.7193 45.6847 57.6955 46.1741 57.6719C46.2413 57.6686 46.3135 57.6635 46.3652 57.6208C46.421 57.5747 46.4382 57.4974 46.4491 57.4258C46.5141 57.0055 46.4919 56.5772 46.4696 56.1524Z" fill="#FF4F4F"/>
<path d="M50.7389 56.1826C50.7318 56.0486 50.7204 55.9033 50.6315 55.8028C50.5987 55.7658 50.5001 55.7303 50.3643 55.7005C49.8579 55.589 48.8326 55.5553 48.7576 55.8075C48.5781 56.4109 48.7812 56.9905 48.7878 57.5945C48.7882 57.6472 48.7917 57.7063 48.8304 57.7417C48.8679 57.7759 48.9245 57.7755 48.9751 57.773C49.4646 57.7494 49.954 57.7256 50.4434 57.702C50.5106 57.6988 50.5828 57.6936 50.6345 57.6509C50.6903 57.6048 50.7075 57.5275 50.7185 57.4559C50.7835 57.0356 50.7612 56.6073 50.7389 56.1826Z" fill="#FF4F4F"/>
<path d="M55.0079 56.2131C55.0009 56.0788 54.9896 55.9337 54.9006 55.8331C54.8678 55.796 54.7693 55.7606 54.6334 55.7307C54.127 55.6193 53.1017 55.5856 53.0267 55.8379C52.8471 56.4413 53.0501 57.0209 53.0568 57.625C53.0573 57.6776 53.0607 57.7367 53.0995 57.7721C53.137 57.8064 53.1935 57.8059 53.2442 57.8035C53.7337 57.78 54.2231 57.7562 54.7125 57.7326C54.7796 57.7293 54.8518 57.7242 54.9035 57.6814C54.9593 57.6353 54.9765 57.5579 54.9876 57.4864C55.0526 57.066 55.0303 56.6378 55.0079 56.2131Z" fill="#FF4F4F"/>
<path d="M59.2769 56.2434C59.2701 56.109 59.2587 55.9638 59.1698 55.8633C59.1369 55.8263 59.0385 55.7908 58.9026 55.761C58.3962 55.6496 57.371 55.6158 57.2959 55.868C57.1163 56.4715 57.3195 57.0512 57.326 57.6551C57.3265 57.7077 57.3299 57.7668 57.3687 57.8023C57.4062 57.8365 57.4627 57.836 57.5132 57.8337C58.0027 57.8101 58.4921 57.7863 58.9815 57.7627C59.0487 57.7595 59.1209 57.7543 59.1726 57.7116C59.2285 57.6655 59.2455 57.5882 59.2566 57.5166C59.3216 57.0963 59.2994 56.668 59.2769 56.2434Z" fill="#FF4F4F"/>
<path d="M63.5462 56.2738C63.5391 56.1394 63.5279 55.9942 63.4388 55.8936C63.406 55.8566 63.3076 55.8211 63.1717 55.7913C62.6652 55.6799 61.6399 55.6461 61.5649 55.8985C61.3854 56.5019 61.5885 57.0814 61.5951 57.6855C61.5956 57.7382 61.599 57.7972 61.6378 57.8327C61.6753 57.8669 61.7318 57.8664 61.7823 57.8641C62.2718 57.8405 62.7612 57.8167 63.2506 57.7932C63.3177 57.7899 63.3899 57.7847 63.4416 57.7421C63.4976 57.696 63.5146 57.6186 63.5257 57.5471C63.5907 57.1267 63.5685 56.6985 63.5462 56.2738Z" fill="#FF4F4F"/>
<path d="M67.8156 56.3039C67.8084 56.1695 67.797 56.0244 67.7081 55.9239C67.6753 55.8869 67.5768 55.8514 67.4409 55.8216C66.9345 55.7101 65.9092 55.6764 65.8342 55.9286C65.6546 56.532 65.8578 57.1117 65.8643 57.7156C65.8649 57.7683 65.8682 57.8274 65.907 57.8628C65.9445 57.897 66.001 57.8966 66.0517 57.8942C66.541 57.8706 67.0306 57.8469 67.52 57.8233C67.5871 57.82 67.6593 57.8149 67.711 57.7722C67.767 57.7261 67.784 57.6488 67.7951 57.5772C67.8601 57.1569 67.8379 56.7286 67.8156 56.3039Z" fill="#FF4F4F"/>
<path d="M72.0846 56.3342C72.0776 56.1999 72.0662 56.0548 71.9771 55.9542C71.9443 55.9171 71.8459 55.8817 71.7099 55.8518C71.2035 55.7404 70.1782 55.7067 70.1032 55.9589C69.9237 56.5623 70.1268 57.1418 70.1334 57.7459C70.134 57.7986 70.1373 57.8575 70.176 57.8931C70.2135 57.9273 70.2701 57.9268 70.3207 57.9245C70.8101 57.9009 71.2996 57.8771 71.789 57.8536C71.8562 57.8503 71.9284 57.8451 71.9803 57.8025C72.036 57.7564 72.0531 57.679 72.0642 57.6075C72.1292 57.1871 72.107 56.7589 72.0846 56.3342Z" fill="#FF4F4F"/>
<path d="M36.0152 44.1903C35.3421 43.0047 34.1409 43.6322 33.0988 43.9887C30.5687 44.8544 28.0924 45.9009 25.6116 46.8992C26.2843 44.4187 26.9923 41.9361 27.5291 39.4236C27.7593 38.3465 28.2398 37.0792 26.9826 36.5517C25.148 35.782 24.4541 38.4253 23.9847 39.6492C22.951 42.3448 22.0633 45.11 20.9605 47.7762C20.8166 48.1242 20.6691 48.4723 20.5232 48.8206C17.51 49.9456 14.4922 51.173 11.9275 52.9725C11.6783 52.7078 11.4043 52.4595 11.0972 52.2358C9.4155 51.0101 7.43643 51.1051 5.49908 51.6034C1.88986 52.5316 -0.65874 56.9272 0.150637 60.562C1.17142 65.1464 6.07815 66.7319 9.96472 64.5161C10.0022 64.4947 10.0377 64.4703 10.0747 64.4481C10.011 64.5742 9.95112 64.7022 9.89612 64.8327C8.15768 68.955 10.315 73.6386 14.9883 74.1074C18.6936 74.4791 22.7552 71.4263 23.248 67.7324C23.5126 65.7494 23.3718 63.7731 21.9549 62.2489C21.6963 61.9706 21.4172 61.7281 21.1247 61.5121C22.6447 58.6808 23.5099 55.4484 24.2835 52.2441C24.7179 51.9975 25.1513 51.747 25.5858 51.5033C28.1021 50.0914 30.7423 48.8816 33.296 47.5348C34.4554 46.9233 36.9976 45.9203 36.0152 44.1903ZM23.2404 44.6395C23.6285 43.5514 24.0296 42.4698 24.4446 41.3915C24.813 40.4345 25.0857 38.8384 25.8182 38.094C27.0104 36.8821 26.6408 38.5598 26.4963 39.2422C26.2857 40.2375 26.0118 41.2237 25.7682 42.2115C25.3422 43.9384 24.874 45.6544 24.4129 47.372C23.5802 47.6922 22.7316 48.0047 21.8766 48.3194C22.356 47.1031 22.8001 45.8737 23.2404 44.6395ZM9.12612 63.1841C6.12565 64.8866 2.35236 63.6694 1.6397 60.1128C1.10814 57.4602 2.68095 55.0184 4.81346 53.608C6.07049 52.7766 8.40362 52.5386 9.70784 53.2639C13.4147 55.3255 12.4127 61.3192 9.12612 63.1841ZM21.2086 68.5916C20.6055 69.8683 19.7532 70.98 18.6618 71.7055C17.7075 72.3397 16.5705 72.679 15.2571 72.5755C11.6411 72.2905 9.98409 68.6886 11.318 65.5071C12.7793 62.0222 18.6115 60.315 21.0986 63.7506C22.1858 65.2524 21.9597 67.0022 21.2086 68.5916ZM15.2825 60.5278C14.3529 60.756 13.4571 61.1435 12.656 61.6605C13.1488 60.7347 13.471 59.7038 13.5991 58.6561C13.6857 58.6531 13.7732 58.6255 13.8554 58.561C14.9024 57.7381 16.0746 57.0306 17.258 56.3477C16.6849 57.6955 16.0896 59.0419 15.3466 60.262C15.2922 60.3513 15.2752 60.4416 15.2825 60.5278ZM22.0876 56.0902C21.6538 57.6984 20.7522 59.396 20.3955 61.0505C19.2304 60.4272 17.8969 60.2052 16.5689 60.3169C17.3682 58.953 17.9277 57.3633 18.5561 55.9373C18.6224 55.7867 18.6896 55.6366 18.7561 55.4861C19.1525 55.2572 19.546 55.0275 19.9296 54.7925C20.9113 54.1913 21.9071 53.6047 22.9076 53.0266C22.6352 54.048 22.363 55.0692 22.0876 56.0902ZM34.6221 45.5295C33.9699 46.3453 32.4176 46.8056 31.5112 47.2851C30.4899 47.8253 29.4637 48.352 28.4293 48.8669C26.5682 49.793 24.7165 50.7184 22.9335 51.7898C21.2168 52.8216 19.4921 53.8403 17.768 54.8602C16.4268 55.6536 14.9147 56.3981 13.6555 57.3536C13.6086 56.0216 13.2299 54.7241 12.4725 53.6412C14.073 53.0905 15.6513 51.9936 17.1968 51.3719C19.3597 50.5016 21.5194 49.6297 23.6902 48.778C25.9762 47.8812 28.2426 46.9356 30.5399 46.0684C31.4918 45.7092 32.4384 45.3201 33.4016 44.9926C34.0618 44.7681 35.6837 44.2019 34.6221 45.5295Z" fill="#FF4F4F"/>
<path d="M7.96404 54.9459C4.69544 53.7542 2.89653 59.1451 4.79825 61.2323C6.27997 62.8586 8.86264 61.9954 9.86076 60.2726C10.9459 58.3995 10.0659 55.7121 7.96404 54.9459ZM8.90842 59.7768C8.20357 60.9968 6.40826 61.6447 5.40982 60.409C4.68732 59.5151 4.86044 58.2696 5.36982 57.2367C5.86919 56.4139 6.54763 55.7404 7.41123 55.9279C9.02811 56.2789 9.65154 58.4906 8.90842 59.7768Z" fill="#FF4F4F"/>
<path d="M19.6359 65.6822C18.6253 63.6863 15.8525 63.1319 14.1216 64.4319C12.5295 65.6275 11.9795 68.2946 13.7702 69.5726C16.0684 71.2129 21.2077 68.7862 19.6359 65.6822ZM17.6695 68.5304C16.7045 69.159 15.4883 69.4787 14.515 68.8676C13.1695 68.023 13.5994 66.1635 14.727 65.3186C15.9159 64.428 18.1859 64.7841 18.7264 66.3479C19.0152 67.183 18.4272 67.9366 17.6695 68.5304Z" fill="#FF4F4F"/>
<path d="M21.9378 50.9181C21.7617 50.6643 21.4227 50.5695 21.1527 50.7397C20.9006 50.8982 20.7986 51.2718 20.9741 51.5248C21.1502 51.7786 21.4892 51.8732 21.7592 51.7032C22.0113 51.5445 22.1133 51.1709 21.9378 50.9181Z" fill="#FF4F4F"/>
</svg>
