<svg width="506" height="506" viewBox="0 0 506 506" fill="none" xmlns="http://www.w3.org/2000/svg">
<circle cx="253" cy="253" r="253" fill="white" fill-opacity="0.2"/>
<circle cx="253" cy="253" r="207" fill="white"/>
<path d="M273.613 124.094H256.035C252.916 124.09 249.922 125.32 247.707 127.515C245.492 129.711 244.235 132.694 244.211 135.813V270.689C244.225 272.228 244.542 273.749 245.144 275.165C245.746 276.581 246.621 277.865 247.719 278.942C248.817 280.02 250.116 280.871 251.543 281.447C252.97 282.022 254.497 282.311 256.035 282.297H273.613C272.075 282.311 270.548 282.022 269.121 281.447C267.694 280.871 266.395 280.02 265.297 278.942C264.199 277.865 263.324 276.581 262.722 275.165C262.12 273.749 261.803 272.228 261.789 270.689V135.813C261.813 132.694 263.07 129.711 265.285 127.515C267.5 125.32 270.494 124.09 273.613 124.094Z" fill="#D4E1F4"/>
<path d="M259.445 135.89C258.513 135.89 257.619 136.26 256.959 136.92C256.3 137.579 255.93 138.473 255.93 139.405V141.21C255.93 142.143 256.3 143.037 256.959 143.696C257.619 144.355 258.513 144.726 259.445 144.726C260.378 144.726 261.272 144.355 261.931 143.696C262.591 143.037 262.961 142.143 262.961 141.21V139.405C262.961 138.473 262.591 137.579 261.931 136.92C261.272 136.26 260.378 135.89 259.445 135.89Z" fill="#FF4F4F"/>
<path d="M259.445 150.155C258.513 150.155 257.619 150.525 256.959 151.185C256.3 151.844 255.93 152.738 255.93 153.671V189.054C255.93 189.987 256.3 190.881 256.959 191.54C257.619 192.2 258.513 192.57 259.445 192.57C260.378 192.57 261.272 192.2 261.931 191.54C262.591 190.881 262.961 189.987 262.961 189.054V153.671C262.961 152.738 262.591 151.844 261.931 151.185C261.272 150.525 260.378 150.155 259.445 150.155Z" fill="#FF4F4F"/>
<path d="M258.273 365.324C258.245 368.8 256.844 372.123 254.377 374.57C251.909 377.018 248.575 378.391 245.099 378.391H161.405C154.2 378.391 148.117 372.531 148.117 365.324V240.173C148.117 232.968 154.2 227.219 161.405 227.219H178V220.188H161.405C150.323 220.188 141.086 229.094 141.086 240.173V365.324C141.086 376.405 150.323 385.422 161.405 385.422H245.099C250.439 385.419 255.56 383.305 259.346 379.539C263.132 375.774 265.274 370.664 265.305 365.324V348.508H258.273V365.324Z" fill="#090E36"/>
<path d="M291.086 332.16C291.107 333.85 290.79 335.527 290.153 337.093C289.516 338.659 288.572 340.081 287.378 341.277C286.183 342.472 284.762 343.417 283.196 344.055C281.631 344.693 279.955 345.012 278.264 344.992H194.57C192.868 345.016 191.178 344.702 189.598 344.069C188.018 343.435 186.579 342.494 185.365 341.301C184.151 340.107 183.185 338.685 182.525 337.116C181.864 335.547 181.521 333.863 181.516 332.16V207.007C181.512 203.532 182.882 200.196 185.327 197.726C187.773 195.256 191.095 193.852 194.57 193.82H211.398V186.789H194.57C189.231 186.823 184.122 188.968 180.358 192.756C176.595 196.545 174.483 201.668 174.484 207.007V332.16C174.491 334.786 175.016 337.384 176.031 339.805C177.045 342.227 178.528 344.424 180.395 346.27C182.262 348.116 184.476 349.575 186.908 350.562C189.341 351.55 191.945 352.046 194.57 352.023H278.264C280.878 352.042 283.468 351.541 285.886 350.549C288.304 349.557 290.5 348.094 292.347 346.246C294.195 344.398 295.656 342.201 296.647 339.782C297.637 337.364 298.137 334.773 298.117 332.16V315.695H291.086V332.16Z" fill="#FF4F4F"/>
<path d="M324.484 298.993C324.488 302.468 323.118 305.804 320.673 308.274C318.227 310.744 314.905 312.148 311.43 312.18H227.736C220.53 312.18 214.914 306.198 214.914 298.993V173.84C214.893 172.15 215.211 170.473 215.847 168.907C216.484 167.341 217.428 165.919 218.622 164.723C219.817 163.528 221.239 162.583 222.804 161.945C224.369 161.307 226.046 160.988 227.736 161.008H244.211V153.977H227.736C225.123 153.958 222.532 154.459 220.114 155.451C217.697 156.443 215.5 157.906 213.653 159.754C211.806 161.602 210.344 163.799 209.354 166.218C208.363 168.636 207.863 171.227 207.883 173.84V298.993C207.883 310.075 216.654 319.211 227.736 319.211H311.43C316.769 319.177 321.878 317.032 325.642 313.243C329.405 309.455 331.517 304.332 331.516 298.993V282.297H324.484V298.993Z" fill="#090E36"/>
<path d="M364.328 135.812C364.328 131.772 362.723 127.897 359.866 125.04C357.009 122.183 353.134 120.578 349.094 120.578H255.93C251.889 120.578 248.014 122.183 245.157 125.04C242.3 127.897 240.695 131.772 240.695 135.812V270.578C240.695 274.619 242.3 278.493 245.157 281.35C248.014 284.207 251.889 285.812 255.93 285.812H349.094C353.134 285.812 357.009 284.207 359.866 281.35C362.723 278.493 364.328 274.619 364.328 270.578V135.812ZM357.297 270.578C357.297 272.754 356.433 274.84 354.894 276.379C353.356 277.917 351.269 278.781 349.094 278.781H255.93C253.754 278.781 251.668 277.917 250.129 276.379C248.591 274.84 247.727 272.754 247.727 270.578V135.812C247.727 133.637 248.591 131.55 250.129 130.012C251.668 128.474 253.754 127.609 255.93 127.609H349.094C351.269 127.609 353.356 128.474 354.894 130.012C356.433 131.55 357.297 133.637 357.297 135.812V270.578Z" fill="#FF4F4F"/>
</svg>
