<svg width="80" height="80" viewBox="0 0 80 80" fill="none" xmlns="http://www.w3.org/2000/svg">
<g clip-path="url(#clip0)">
<path d="M35.1348 69.9889C34.9996 66.8119 34.7217 63.7266 34.7534 60.5406C34.7767 58.1995 33.8192 58.0407 31.7037 57.9473C28.5593 57.8084 25.3976 57.7437 22.2532 57.8429C22.248 57.8431 22.244 57.8445 22.239 57.8448C21.083 54.7442 19.745 51.7232 18.3416 48.7281C17.8188 47.6121 16.5636 43.0896 14.6883 43.9244C13.7842 44.3269 13.2239 45.9763 12.8036 46.7916C12.2967 47.7745 11.9013 48.8001 11.4969 49.8265C10.6781 51.2967 9.85188 52.7638 9.10203 54.2551C8.25984 55.9296 7.46593 57.6345 6.73796 59.3625C6.38796 60.1937 5.72577 61.3715 5.99374 62.3215C6.54952 64.292 9.95297 64.2403 11.5055 64.3137C12.4539 64.3586 13.4031 64.3781 14.3525 64.3919C14.158 66.973 14.5264 69.6413 14.4399 72.2253C14.3753 74.155 15.3946 74.3071 17.1618 74.3961C20.0407 74.5411 22.9485 74.5388 25.8329 74.5627C28.3091 74.5835 31.3776 74.8874 33.7743 74.208C35.7085 73.6597 35.2043 71.6235 35.1348 69.9889ZM10.2384 63.0462C8.8475 62.9072 7.16078 62.8067 7.36953 60.9954C7.49765 59.8834 8.40516 58.4698 8.8675 57.4186C10.5206 53.6595 12.6331 50.066 14.2764 46.3021C14.5225 45.7387 15.2616 45.4054 15.6702 45.8459C16.155 46.3685 16.2738 47.3857 16.563 48.0302C17.0978 49.2218 17.6916 50.386 18.2413 51.5707C19.2999 53.8512 20.2047 56.2146 21.1041 58.5622C21.5285 59.67 22.4352 61.48 21.5858 62.5039C20.8522 63.3881 19.3611 63.285 18.3363 63.2481C15.6407 63.1512 12.9258 63.3148 10.2384 63.0462ZM33.9051 71.9872C33.5787 73.5178 31.8277 73.1153 30.5257 73.1817C26.3998 73.3921 22.246 73.2847 18.1152 73.2128C17.3363 73.1994 15.9538 73.5361 15.5877 72.5864C15.4544 72.2408 15.4866 71.8556 15.5342 71.4883C15.6692 70.4464 15.6921 69.33 15.6171 68.28C15.5941 67.9581 15.3222 64.4053 15.3355 64.4055C15.7772 64.4109 16.2188 64.4165 16.6605 64.424C18.2494 64.4512 20.2421 64.7073 21.7707 64.1547C23.9166 63.3787 23.3032 60.8612 22.6983 59.0925C24.8507 59.0434 26.9844 59.1203 29.1391 59.1542C30.0848 59.169 31.5651 58.9506 32.4548 59.2748C33.047 59.4906 33.3476 59.6967 33.4628 60.5408C33.5323 61.0503 33.3951 61.8709 33.3809 62.3872C33.3162 64.7116 33.7145 66.9348 33.8309 69.2409C33.8712 70.0405 34.0684 71.2225 33.9051 71.9872Z" fill="#FF4F4F"/>
<path d="M34.4899 46.2686C32.5396 46.132 30.5771 46.05 28.6219 46.0405C27.0155 46.0327 24.0644 45.4756 22.6168 46.3044C22.3654 46.4483 22.3871 46.9116 22.7032 46.9658C24.8482 47.3338 27.0891 47.1438 29.2549 47.193C30.9731 47.232 32.9462 47.6355 34.6115 47.1672C35.1253 47.0227 34.9937 46.3038 34.4899 46.2686Z" fill="#FF4F4F"/>
<path d="M34.4899 48.7813C32.5396 48.6448 30.5771 48.5627 28.6219 48.5532C27.0155 48.5452 24.0644 47.9884 22.6168 48.8171C22.3654 48.961 22.3871 49.4243 22.7032 49.4785C24.8482 49.8465 27.0891 49.6565 29.2549 49.7057C30.9731 49.7448 32.9462 50.1482 34.6115 49.6799C35.1253 49.5355 34.9937 48.8166 34.4899 48.7813Z" fill="#FF4F4F"/>
<path d="M34.4899 51.2945C32.5396 51.158 30.5771 51.0759 28.6219 51.0664C27.0155 51.0584 24.0644 50.5016 22.6168 51.3303C22.3654 51.4742 22.3871 51.9375 22.7032 51.9917C24.8482 52.3595 27.0891 52.1697 29.2549 52.2189C30.9731 52.258 32.9462 52.6614 34.6115 52.1931C35.1253 52.0487 34.9937 51.3297 34.4899 51.2945Z" fill="#FF4F4F"/>
<path d="M34.4899 53.753C32.5396 53.6165 30.5771 53.5344 28.6219 53.5249C27.0155 53.5169 24.0644 52.9601 22.6168 53.7888C22.3654 53.9327 22.3871 54.396 22.7032 54.4502C24.8482 54.818 27.0891 54.6282 29.2549 54.6774C30.9731 54.7164 32.9462 55.1199 34.6115 54.6516C35.1253 54.5071 34.9937 53.7882 34.4899 53.753Z" fill="#FF4F4F"/>
<path d="M67.0672 55.2391C66.7017 55.0267 66.3348 54.8459 65.9676 54.6853C66.3253 50.5566 64.6939 45.8031 61.0959 43.7123C57.67 41.7214 54.1184 42.0314 51.2843 44.0139C50.4443 44.4668 49.6713 45.0634 48.9457 45.8901C47.2369 47.8372 46.3929 50.4644 46.5988 53.032C46.6419 53.5702 46.7213 54.0855 46.8243 54.5847C46.2288 54.8384 45.6535 55.1574 45.1057 55.5406C44.2657 55.9938 43.4927 56.5902 42.7672 57.4169C41.0583 59.3639 40.2144 61.9911 40.4202 64.5588C40.8179 69.5213 43.803 72.8598 48.5791 74.0243C51.3309 74.6952 54.4535 73.9823 56.6912 72.2304C57.8335 73.0418 59.1861 73.6481 60.729 74.0243C65.1519 75.1026 70.5345 72.6079 71.657 67.9652C72.7309 63.5236 71.1886 57.6342 67.0672 55.2391ZM49.3084 47.3411C50.128 46.0715 51.2126 45.197 52.4065 44.4509C53.0217 44.1395 53.6596 43.8817 54.3238 43.7154C56.8896 43.0729 59.8428 44.0914 61.7651 45.8184C63.8912 47.7283 64.9962 51.1311 64.7342 54.2403C62.0722 53.4797 59.4487 54.0063 57.2556 55.5406C56.9017 55.7316 56.5604 55.9499 56.2287 56.198C55.824 55.8391 55.3896 55.5136 54.9171 55.2391C52.5754 53.8781 50.1752 53.5936 47.9855 54.182C47.5502 51.8381 47.9565 49.4344 49.3084 47.3411ZM55.2793 58.8678C55.5228 58.4908 55.7918 58.1522 56.0779 57.8378C56.9534 58.7935 57.6204 60.0164 58.0468 61.3514C56.7707 61.5297 55.4606 61.4414 54.2238 61.1032C54.4692 60.3319 54.8184 59.5817 55.2793 58.8678ZM53.0459 60.6974C51.1552 59.8957 49.5496 58.463 48.6862 56.4666C48.5091 56.0574 48.361 55.6419 48.2374 55.223C50.6359 54.6614 53.3538 55.5286 55.2492 57.0595C55.1374 57.1741 55.0264 57.2919 54.917 57.4167C54.0762 58.3749 53.4459 59.498 53.0459 60.6974ZM56.9968 56.9636C57.4329 56.603 57.8956 56.2789 58.3775 55.9778C58.9926 55.6664 59.6306 55.4086 60.2948 55.2424C61.6751 54.8967 63.1664 55.035 64.5501 55.5024C64.1645 57.2908 63.2731 58.8866 61.8004 59.9089C61.012 60.4563 60.1437 60.8518 59.239 61.1049C58.7689 59.5667 58.0242 58.1278 56.9968 56.9636ZM55.6217 71.4357C51.317 74.424 44.6432 72.9313 42.5074 67.9933C41.2054 64.983 41.3322 61.6511 43.1296 58.8678C43.9493 57.5983 45.0338 56.7238 46.2276 55.9777C46.5052 55.837 46.7884 55.7094 47.0757 55.5942C47.9563 58.4947 49.927 60.623 52.7438 61.8252C52.559 62.7218 52.4967 63.6436 52.5699 64.5585C52.7985 67.4105 53.8856 69.7226 55.6721 71.3974C55.6549 71.4098 55.6392 71.4237 55.6217 71.4357ZM56.5442 70.6398C55.7579 69.9157 55.1063 69.0318 54.6573 67.9933C53.8553 66.1391 53.5978 64.1633 53.9363 62.2683C54.2043 62.3516 54.4773 62.4288 54.7578 62.4972C55.9284 62.7827 57.166 62.8154 58.3745 62.6266C58.9442 65.5177 58.4281 68.6666 56.5442 70.6398ZM67.7715 71.4357C64.74 73.5402 60.5353 73.4196 57.5664 71.4412C58.4886 70.488 59.1798 69.3187 59.5071 67.9651C59.9286 66.2222 59.9411 64.2579 59.559 62.3677C62.4429 61.5505 64.9587 59.446 65.6859 56.4383C65.7197 56.2992 65.743 56.155 65.7715 56.0133C66.493 56.3777 67.1614 56.8288 67.7364 57.3453C71.4245 60.6585 72.0491 68.4663 67.7715 71.4357Z" fill="#FF4F4F"/>
<path d="M67.5018 21.2465C67.5003 19.5992 67.251 17.9463 67.2167 16.2996C67.2004 15.5288 67.3612 14.8698 66.7806 14.2715C66.4973 13.9798 65.946 13.9554 65.6665 14.2715C64.5998 15.4777 63.5545 16.5588 62.2863 17.5699C60.9584 18.6284 60.0657 19.792 59.0768 21.057C57.0054 23.0689 54.8557 24.9948 52.7599 26.9809C51.4782 28.1956 50.2602 29.4673 49.0407 30.7453C48.5358 31.2744 47.7844 31.9428 47.9205 32.7634C48.0622 33.6184 48.9803 33.8706 49.7119 33.985C51.3244 34.2369 53.0182 34.2614 54.6479 34.3475C57.7926 34.5137 60.8941 34.4153 64.0248 34.023C66.1681 33.7542 66.9078 32.7326 67.2079 30.5636C67.632 27.4973 67.5051 24.329 67.5018 21.2465ZM65.7445 28.6712C65.689 29.7554 65.8348 31.7617 64.7023 32.3617C63.8427 32.8172 61.8209 32.7639 60.9509 32.7873C58.541 32.8522 56.2023 32.8956 53.7871 32.803C53.1351 32.778 50.5225 32.8914 50.04 32.4086C49.6789 32.0475 50.4458 31.6426 50.8407 31.2308C51.2933 30.7589 51.728 30.27 52.1729 29.7909C53.7415 28.1018 55.4732 26.5475 57.1769 24.9956C57.4196 24.7745 57.6576 24.5473 57.8976 24.3228C59.1585 24.5918 60.5185 24.5736 61.7766 24.6511C62.9215 24.7215 64.5576 24.9065 65.8306 24.6757C65.8234 26.005 65.8131 27.3325 65.7445 28.6712ZM65.8599 21.8432C65.8509 22.2515 65.8474 22.6579 65.8435 23.0646C65.5857 22.8729 64.5621 23.0854 64.2063 23.1032C63.2499 23.1509 62.3017 23.0879 61.3523 23.0493C60.6631 23.0212 59.9443 22.9968 59.2352 23.0409C60.262 22.0332 61.267 21.0024 62.2488 19.9548C63.3529 18.7765 64.6342 17.7326 65.7406 16.5488C65.7357 17.0852 65.6953 17.6279 65.7107 17.8912C65.7868 19.1957 65.889 20.5373 65.8599 21.8432Z" fill="#FF4F4F"/>
<path d="M79.3459 26.3839C79.2653 25.3781 79.2981 24.4448 78.5801 23.6803C77.1725 22.1815 74.7031 22.6112 72.7059 22.8659C72.7627 21.4998 72.8148 20.1379 72.7127 18.7507C72.5376 16.3659 72.8607 14.0262 73.1073 11.6551C73.336 9.45696 73.4921 7.24632 73.6088 5.03959C73.6763 3.7624 73.8593 1.22395 72.9356 0.243951C72.6985 -0.0076126 72.2231 -0.0877692 71.9282 0.11395C70.9374 0.791766 70.1613 1.80802 69.4155 2.82396C63.0682 8.9832 56.7694 15.1999 50.3825 21.3211C49.9705 21.7161 49.558 22.1097 49.1455 22.5037C49.1425 22.5026 49.1406 22.5009 49.1377 22.4998C47.8945 22.0909 46.3528 22.5494 45.0751 22.5458C42.8079 22.539 40.5637 22.7351 38.2968 22.7414C36.0487 22.7475 33.7642 22.6389 31.5215 22.7812C30.0298 22.8759 28.4238 22.819 26.9399 23.1014C26.8177 22.6334 26.6954 22.1653 26.5844 21.6942C26.1294 19.7651 25.9299 17.5261 25.1801 15.6687C25.3326 15.6168 25.479 15.5567 25.6079 15.4754C26.7415 14.7618 26.8137 13.0546 26.7079 11.8629C26.6012 10.6618 26.5815 8.93508 25.2821 8.40555C24.8874 8.24476 24.4551 8.15273 24.0062 8.10054C23.9991 7.0421 24.0383 5.97944 24.0191 4.91616C24.0085 4.32569 23.9138 3.74959 23.9191 3.15724C23.9243 2.57474 24.108 1.94458 23.9819 1.36661C23.6654 -0.0837066 22.1215 0.257076 21.0152 0.413795C20.4233 0.497702 19.7535 0.514733 19.4144 1.10708C19.0971 1.66146 19.196 2.86505 19.1764 3.47849C19.1464 4.42678 19.2238 5.35491 19.3432 6.29522C19.4171 6.87679 19.4904 7.59804 19.6936 8.21789C19.1329 8.24804 18.5963 8.32242 18.1982 8.67273C18.0266 8.71242 17.8703 8.84461 17.8411 9.07399C17.8372 9.10508 17.8339 9.13602 17.8299 9.16711C17.8141 9.1993 17.7972 9.2293 17.7824 9.26383C17.4264 10.1001 17.3867 11.1809 17.4814 12.2259C17.4582 12.4513 17.4324 12.6767 17.4102 12.9021C17.3528 13.4806 17.2849 14.1518 17.4825 14.7146C17.7032 15.3426 18.1403 15.6634 18.6652 15.8329C18.321 18.2601 18.0122 20.7153 17.7728 23.1765C17.0157 23.1656 16.0302 22.9267 15.405 22.9351C14.0769 22.9531 12.7358 22.9454 11.4097 22.9872C8.91922 23.0656 6.43718 22.8678 3.93888 22.8854C2.44482 22.8961 2.1656 23.4833 1.97544 24.9581C1.65044 27.4769 1.38419 30.0823 1.34481 32.6219C1.27216 37.2991 1.02559 41.971 0.866529 46.6493C0.785903 49.019 0.862154 51.3992 0.849497 53.7704C0.836997 56.1168 0.56934 58.4476 0.558559 60.7911C0.546059 63.4976 0.796372 66.1855 0.773716 68.8913C0.752153 71.4478 0.592621 73.9917 0.564653 76.5449C0.548871 77.9863 0.771216 79.0116 2.31247 79.3986C4.02701 79.8293 6.11046 79.5035 7.85874 79.5224C12.6899 79.5747 17.4932 80.0258 22.3372 79.9988C27.8254 79.9682 33.3228 79.68 38.8107 79.5285C41.9761 79.441 45.1403 79.293 48.3066 79.2582C51.3663 79.2244 54.4127 79.6883 57.4649 79.7349C61.9357 79.803 66.4082 79.8404 70.8377 79.3508C71.0446 79.3366 71.2518 79.3227 71.4573 79.3071C73.3021 79.1669 75.6495 79.061 76.8251 77.3871C77.9228 75.8241 77.6671 73.3519 77.7868 71.567C77.9551 69.0539 78.2123 66.5356 78.2554 64.0115C78.342 58.9396 79.1368 53.8584 79.3532 48.7791C79.4754 45.9098 79.3778 42.9738 79.3695 40.094C79.3614 37.2024 79.4457 34.3128 79.4375 31.4231C79.4323 29.7381 79.4809 28.0647 79.3459 26.3839ZM52.0309 22.0964C58.5168 15.752 65.3702 9.60852 71.3116 2.72865C71.4468 2.59646 71.5821 2.46537 71.7191 2.33662C71.7432 2.7113 71.8118 3.11802 71.8349 3.4424C71.8795 4.06725 71.8882 4.64194 71.8576 5.27225C71.7679 7.12117 71.6312 8.97023 71.4421 10.8118C71.2696 12.4934 71.0849 14.1648 70.987 15.8512C70.8721 17.8253 71.1665 19.7684 71.0765 21.7415C70.9052 25.4967 70.9251 29.2456 70.8748 33.0108C70.8588 34.208 70.8757 35.5038 70.5252 36.6567C70.1329 37.9477 69.494 38.2577 68.1924 38.3977C66.5049 38.5793 64.8152 38.555 63.1266 38.4185C59.1186 38.0944 55.0606 38.2413 51.0459 38.0078C46.7126 37.756 42.2475 38.4163 37.9459 37.7803C36.8745 37.6219 36.6484 37.4863 37.3657 36.5355C37.8829 35.85 38.479 35.2508 39.1168 34.6816C40.6131 33.3463 41.9904 31.8767 43.3983 30.4472C46.2109 27.5912 49.1677 24.897 52.0309 22.0964ZM26.5837 27.4111C27.0205 29.2925 27.3665 31.1924 27.7165 33.0916C27.9091 34.1371 28.108 35.181 28.2616 36.233C28.4054 37.2182 29.0495 38.4053 27.6565 38.5072C26.8482 38.5663 27.1538 38.3068 26.9599 37.4008C26.7526 36.4327 26.6188 35.4514 26.3919 34.488C25.9374 32.5588 25.6885 30.6031 25.2377 28.6722C24.7262 26.4816 24.1822 24.2895 23.7343 22.085C23.3219 20.0564 23.188 17.9903 22.8471 15.9567C22.8504 15.9564 22.8538 15.9562 22.8571 15.9559C23.101 15.9285 23.3802 15.9156 23.6697 15.8992C24.4774 17.5625 24.5638 19.7068 25.0235 21.4903C25.5321 23.4644 26.1226 25.4255 26.5837 27.4111ZM20.8474 1.89818C20.8022 1.93302 21.8672 1.78068 22.0286 1.81036C22.691 1.93177 22.3697 1.74849 22.4688 2.36693C22.5349 2.77959 22.4033 3.25771 22.4191 3.6849C22.473 5.14319 22.4571 6.59944 22.4799 8.05679C22.0068 8.07367 21.5385 8.10711 21.09 8.14023C21.1954 7.27538 20.9282 6.35741 20.8468 5.486C20.779 4.75803 20.4854 2.17771 20.8474 1.89818ZM18.8241 11.1201C18.8719 10.556 18.7844 9.87446 19.5157 9.60524C19.5758 9.58305 20.1099 9.66727 20.2389 9.66836C21.226 9.67696 22.1607 9.55352 23.153 9.61774C23.5557 9.64367 24.1966 9.53852 24.5583 9.76758C25.1116 10.1181 25.069 10.9009 25.1268 11.4509C25.2732 12.8434 25.454 14.0467 23.744 14.3165C22.6044 14.4964 21.4466 14.5353 20.2946 14.5078C19.098 14.4793 18.813 14.121 18.7805 12.9943C18.7739 12.7665 18.7711 12.5385 18.7677 12.3104C18.7807 11.9135 18.7905 11.5156 18.8241 11.1201ZM21.1661 20.3859C21.2091 22.5117 21.1399 24.6259 21.2227 26.75C21.3336 29.5881 21.1307 32.4233 21.0108 35.2574C20.966 36.3146 21.5463 41.046 19.3924 38.8722C18.6141 38.0866 18.8146 36.8083 18.7983 35.7302C18.7643 33.463 18.8489 31.1572 18.9383 28.8908C19.108 24.5906 19.648 20.3172 19.8374 16.0176C19.9354 16.0229 20.0333 16.0273 20.1307 16.0307C20.5107 16.044 20.8968 16.0481 21.2829 16.0437C21.1335 17.4718 21.1379 18.9823 21.1661 20.3859ZM77.6706 37.081C77.6501 43.128 77.6293 49.1263 77.2364 55.159C76.8879 60.5059 76.307 65.8301 76.0926 71.1892C76.0409 72.4822 76.0318 73.9033 75.769 75.1786C75.4412 76.7697 74.5192 77.1442 73.2138 77.3792C68.8055 77.8582 64.351 78.2211 59.8935 78.0393C54.9699 77.8383 50.0664 77.6339 45.1369 77.6635C35.1376 77.7233 25.1157 78.7135 15.1171 78.235C13.1164 78.1394 11.1149 77.9033 9.11234 77.8543C8.22625 77.8325 7.35515 77.8325 6.47233 77.7864C5.32701 77.7268 4.17123 78.0052 3.0331 77.8316C2.07935 77.6861 2.24247 77.6039 2.20263 76.7458C2.17841 76.2203 2.18997 75.6599 2.20919 75.1341C2.24763 74.0753 2.38138 73.0247 2.39544 71.9647C2.42982 69.3548 2.38028 66.7789 2.2381 64.1761C2.00169 59.85 2.47794 55.5132 2.48388 51.1832C2.49013 46.5174 2.88857 41.8496 2.86169 37.1957C2.8481 34.8399 2.93279 32.4685 3.14482 30.1219C3.25357 28.918 3.31951 27.7244 3.46795 26.5228C3.52763 26.0394 3.38966 24.8398 3.68185 24.4767C3.58185 24.6581 4.51607 24.538 4.81967 24.5375C7.14905 24.5344 9.46922 24.6365 11.7933 24.6159C13.2486 24.603 14.6913 24.5405 16.1457 24.4845C16.6289 24.4659 17.1508 24.5056 17.6549 24.4775C17.4577 26.758 17.3236 29.0403 17.2913 31.3077C17.2561 33.7706 16.9369 36.406 17.3964 38.8452C17.5832 39.8368 18.1369 40.3994 18.8729 40.6925C18.7554 41.0463 18.7799 41.4469 18.7719 41.8204C18.7597 42.3847 18.7603 42.9518 18.7691 43.5162C18.7818 44.3313 20.0627 44.3316 20.0358 43.5162C20.0455 42.913 20.0207 42.3094 20.0332 41.7063C20.0389 41.4238 20.0657 41.1761 20.0336 40.9444C20.361 40.97 20.7013 40.9691 21.0465 40.9469C22.4299 40.8575 22.3832 39.8893 22.4663 38.6647C22.6399 36.1072 22.8429 33.4981 22.7641 30.9336C22.6885 28.4736 22.4346 26.0073 22.5496 23.5469C22.5594 23.3378 22.5611 23.127 22.5651 22.9169C22.6619 23.4537 22.7657 23.99 22.8888 24.5244C23.4871 27.1219 24.1569 29.7009 24.5313 32.3406C24.6807 33.3933 24.9755 34.4044 25.1712 35.4472C25.384 36.5828 25.3641 37.9946 25.8157 39.0607C26.2062 39.9825 26.9682 40.1939 27.8074 40.0774C27.838 40.2863 27.8777 40.496 27.9063 40.7038C28.0052 41.4219 28.2074 42.114 28.2634 42.8383C28.3135 43.7562 29.6412 43.758 29.691 42.8383C29.7307 42.1069 29.4768 41.4083 29.3435 40.6977C29.2796 40.3571 29.2484 39.9986 29.163 39.6643C30.6598 38.9513 30.0479 37.7918 29.8348 36.2971C29.4799 33.808 28.9896 31.33 28.4432 28.8761C28.106 27.3619 27.686 25.8706 27.2785 24.3761C28.6685 24.5661 30.151 24.3903 31.5212 24.3111C33.8849 24.1742 36.2914 24.3036 38.66 24.3092C40.8054 24.3144 42.9278 24.1154 45.075 24.1206C45.6462 24.1219 46.5522 24.1936 47.4106 24.1633C44.9912 26.4753 42.5778 28.7905 40.2064 31.1631C38.8834 32.4869 32.8477 36.851 35.6362 38.9114C36.8195 39.7858 39.1815 39.6547 40.5725 39.6764C43.204 39.7174 45.8365 39.6685 48.4683 39.6764C52.9474 39.69 57.4236 39.9438 61.8979 40.1049C63.7497 40.1716 65.6233 40.4554 67.4662 40.2333C69.0013 40.0483 70.6573 40.0635 71.6188 38.6508C72.6443 37.1444 72.6167 34.7463 72.6406 33.0111C72.6749 30.5092 72.6254 28.0164 72.629 25.518C72.6295 25.1175 72.6392 24.7195 72.6512 24.3223C73.599 24.3312 74.5342 24.2229 75.4899 24.2665C76.5762 24.3162 77.4487 24.4517 77.6743 25.655C77.797 26.3087 77.7928 27.0619 77.8117 27.7237C77.9009 30.8394 77.6812 33.9647 77.6706 37.081Z" fill="#FF4F4F"/>
</g>
<defs>
<clipPath id="clip0">
<rect width="80" height="80" fill="white"/>
</clipPath>
</defs>
</svg>
