<svg width="80" height="80" viewBox="0 0 80 80" fill="none" xmlns="http://www.w3.org/2000/svg">
<path d="M78.0295 10.7922C75.4598 7.43784 71.9126 5.31301 67.6687 5.15144C63.4016 4.98894 58.7333 6.95191 56.1364 10.411C55.7714 10.8971 55.4664 11.441 55.3147 11.9877C54.31 12.6575 53.356 13.8531 52.9414 14.8986C52.6274 15.6906 52.4394 16.6535 52.4667 17.512C52.4861 18.1197 52.7286 18.7627 52.7035 19.3652C52.6499 20.643 52.1078 20.7616 51.2163 21.3459C50.4016 21.88 48.8441 22.7495 49.0799 23.9656C49.4692 25.9728 52.8864 24.387 53.1205 26.6652C53.3141 28.5489 53.4989 30.6037 54.323 32.3459C55.0408 33.8636 56.5181 34.1748 58.0681 34.2311C59.4713 34.282 60.5102 33.8886 61.0859 35.4297C61.3533 36.1456 61.5856 37.0465 62.0336 37.6861C63.0006 39.0665 64.9866 38.8993 66.4584 38.6158C68.6392 38.1958 70.9189 37.3253 72.9858 36.5025C74.4161 35.9331 75.3164 35.0458 74.9636 33.445C74.7586 32.5145 74.0542 31.6495 73.8909 30.7587C73.6539 29.4645 75.165 28.4597 75.8736 27.6081C77.2962 25.8984 78.4576 24.0736 79.142 21.9547C80.3493 18.2164 80.5343 14.0621 78.0295 10.7922ZM72.9487 34.3914C72.4298 35.132 71.4856 35.2387 70.6651 35.5361C68.9728 36.1494 66.8247 37.2426 64.9886 37.1445C62.6317 37.0184 63.105 34.9109 61.9453 33.5037C61.227 32.632 60.1594 32.6373 59.1183 32.643C58.3599 32.647 57.4205 32.7901 56.6985 32.5105C55.5738 32.0748 55.4355 30.9978 55.1778 29.9948C55.0777 29.6048 54.9766 29.2097 54.8845 28.8122C55.3385 28.8566 55.7949 28.8053 56.2927 28.7025C56.9574 28.5653 58.026 28.4439 58.5181 27.9464C58.7991 27.6625 58.5824 27.2055 58.2034 27.1867C57.5516 27.1544 56.9078 27.4795 56.2905 27.6462C55.7646 27.7883 55.2191 27.7845 54.6894 27.8397C54.6538 27.618 54.6236 27.3959 54.6044 27.1736C54.5463 26.4983 54.6121 25.8278 54.2927 25.2002C53.778 24.1892 52.3941 23.7916 51.3313 23.6998C51.0855 23.6788 50.9314 23.6456 50.8332 23.6161C51.1492 23.2477 51.6841 22.9753 52.031 22.74C52.601 22.3533 53.2286 22.0202 53.6805 21.4877C54.5969 20.4078 54.1672 19.2052 54.0449 17.9283C53.9053 16.4717 54.3619 14.6589 55.3478 13.4125C55.4891 13.7713 55.7464 14.108 56.1619 14.4017C57.7106 15.4963 59.6702 15.3388 61.5205 15.2136C61.0216 15.7677 60.565 16.3297 60.4311 17.2256C60.2675 18.3202 60.7674 19.1197 61.7039 19.6647C62.2838 20.0022 63.0705 20.0191 63.6156 20.3609C64.5775 20.9642 63.9756 22.2675 63.8383 23.2197C63.6767 24.3402 63.7383 25.3894 64.9339 25.8667C65.9469 26.2711 67.8842 26.42 68.8828 25.9198C70.4055 25.1573 69.2401 22.9813 70.2944 21.9008C71.0614 21.1147 72.1436 21.6938 72.3376 22.6806C72.4898 23.4544 72.1669 24.2267 71.9058 24.9303C71.6964 25.4947 71.3855 25.9619 71.4492 26.5947C71.5325 27.4222 72.087 28.182 72.7975 28.6439C72.2117 29.5648 71.9787 30.5947 72.5973 31.9956C73.0155 32.9431 73.5767 33.4951 72.9487 34.3914ZM75.5154 25.4334C74.9967 26.1587 74.3637 26.785 73.7922 27.405C72.187 26.9736 73.6856 24.5358 73.7387 23.4378C73.7876 22.4291 73.4947 21.1569 72.7192 20.4345C71.0172 18.8488 68.7164 20.5897 68.3022 22.4092C68.2175 22.7811 68.2839 23.983 68.0809 24.2733C67.5723 25.0011 66.1194 24.5298 65.7197 24.075C64.7856 23.0119 66.0892 21.4619 65.5998 20.1602C65.2031 19.1049 64.202 19.0169 63.2489 18.6789C60.5113 17.7081 63.0867 15.9836 63.8458 14.7627C64.1609 14.2558 63.7492 13.611 63.1798 13.6022C61.7463 13.5802 59 14.3567 57.7555 13.4185C55.6631 11.841 59.1263 9.61003 60.3427 8.83441C63.3944 6.88863 67.8936 5.95972 71.315 7.49972C74.3567 8.86878 77.3448 11.531 78.1533 14.866C79.0356 18.5055 77.6225 22.4883 75.5154 25.4334Z" fill="#FF4F4F"/>
<path d="M57.7806 19.189C57.674 19.0238 57.5368 18.9018 57.3549 18.8249C56.9784 18.666 56.4323 18.7871 56.2434 19.1892C56.104 19.4859 55.9066 19.7218 55.9166 20.0735C55.928 20.4757 56.2813 20.9356 56.7288 20.8857C56.8218 20.8754 56.9084 20.8582 56.9916 20.8362C57.1945 20.8199 57.3924 20.7404 57.5415 20.5882C57.7424 20.3831 57.772 20.1265 57.8702 19.8749C57.9462 19.6812 57.8906 19.3598 57.7806 19.189Z" fill="#FF4F4F"/>
<path d="M51.6815 37.925C50.7479 36.404 49.3009 35.1572 47.9538 34.0085C46.9779 33.176 46.4653 32.1716 46.2226 31.0624C46.1923 29.4958 46.2793 27.8752 46.3471 26.3835C46.4678 23.7274 46.6464 21.0727 46.7596 18.4148C46.904 15.0248 47.7268 10.6309 43.726 9.30479C41.6517 8.61729 39.3645 8.50338 37.2057 8.3001C34.5586 8.05088 31.9323 7.73354 29.277 7.55417C24.0445 7.20104 18.8094 7.14292 13.5653 7.15917C11.2813 7.16635 9.06299 7.43557 6.87815 8.13495C5.04518 8.72166 4.19159 9.75229 3.71472 11.5542C2.52675 16.0434 2.93753 20.6499 3.01097 25.2274C3.04612 27.4216 3.10566 29.8785 3.49409 32.0332C3.83175 33.9052 5.71331 34.3411 7.4094 34.6101C9.80345 34.9896 12.28 34.8952 14.6958 34.9813C17.2877 35.0736 19.8723 35.0019 22.4617 35.1019C25.468 35.218 28.5047 35.0755 31.5144 35.0769C34.0383 35.0782 37.1064 34.7647 39.5392 35.4182C41.8453 36.0375 44.2103 36.8752 46.4451 37.7204C47.5774 38.1486 50.1717 39.6865 51.3926 39.0266C51.7693 38.823 51.9034 38.2866 51.6815 37.925ZM46.5679 36.0451C44.7831 35.3866 42.9428 34.8888 41.1409 34.281C37.5631 33.0741 33.4909 33.461 29.7384 33.4604C25.3819 33.4597 20.9986 33.6007 16.65 33.431C14.4939 33.3468 12.3305 33.3537 10.1775 33.2574C9.15814 33.2119 8.09518 33.1379 7.09877 32.9135C6.51237 32.7815 5.44034 32.574 5.11081 32.0112C4.79331 31.4691 4.9705 30.2755 4.9394 29.6851C4.72362 25.6148 4.4669 21.6071 4.54425 17.5307C4.58253 15.5117 4.81675 13.4313 5.41549 11.4934C6.11284 9.23666 10.1342 8.91588 12.1167 8.81573C21.0137 8.36604 30.025 9.15948 38.8623 10.092C40.1387 10.2267 41.4595 10.3687 42.7032 10.7106C44.1898 11.1192 44.9021 11.8146 45.1624 13.3623C45.5307 15.551 45.1934 17.9738 45.0501 20.1784C44.895 22.5668 44.7073 25.0004 44.7421 27.3933C44.7487 27.8435 44.7435 28.3026 44.7401 28.7646C44.4587 30.4123 44.5249 32.4749 45.4092 33.7754C46.2201 34.9683 47.4439 35.8115 48.5481 36.7746C47.8884 36.531 47.2279 36.2885 46.5679 36.0451Z" fill="#FF4F4F"/>
<path d="M28.7842 57.0154C27.8926 56.4308 27.3506 56.3122 27.297 55.0346C27.2718 54.4321 27.5143 53.7891 27.5337 53.1815C27.561 52.3229 27.3731 51.3601 27.059 50.568C26.6445 49.5226 25.6904 48.327 24.6857 47.6571C24.534 47.1104 24.2289 46.5666 23.8639 46.0804C21.267 42.6213 16.5987 40.6584 12.3314 40.8209C8.08749 40.9824 4.54031 43.1073 1.97063 46.4616C-0.534368 49.7315 -0.349368 53.8858 0.85813 57.6243C1.5425 59.7432 2.70391 61.568 4.12656 63.2775C4.83515 64.1291 6.34624 65.1339 6.10921 66.4282C5.94609 67.3189 5.24156 68.1839 5.03656 69.1144C4.68375 70.7152 5.58421 71.6025 7.01437 72.1719C9.0814 72.9947 11.3609 73.8652 13.5417 74.2852C15.0136 74.5686 16.9995 74.7358 17.9665 73.3555C18.4145 72.716 18.6468 71.815 18.9142 71.0991C19.49 69.5578 20.5287 69.9513 21.9318 69.9005C23.4818 69.8442 24.9592 69.533 25.677 68.0153C26.5009 66.2732 26.6859 64.2183 26.8795 62.3346C27.114 60.0563 30.5312 61.6422 30.9206 59.635C31.1564 58.419 29.5989 57.5496 28.7842 57.0154ZM6.20796 63.0746C5.6364 62.4544 5.00343 61.8282 4.48468 61.1029C2.37766 58.1579 0.964692 54.1749 1.84688 50.5354C2.65531 47.2004 5.64343 44.5382 8.68515 43.1692C12.1067 41.6292 16.6058 42.5581 19.6575 44.5038C20.8737 45.2795 24.337 47.5104 22.2446 49.0879C21.0001 50.0262 18.2539 49.2496 16.8203 49.2716C16.2508 49.2804 15.8392 49.9252 16.1544 50.4321C16.9133 51.6529 19.4889 53.3776 16.7512 54.3483C15.7981 54.6863 14.797 54.7743 14.4003 55.8296C13.9109 57.1315 15.2145 58.6815 14.2804 59.7444C13.8808 60.1993 12.4278 60.6707 11.9192 59.9427C11.7162 59.6522 11.7826 58.4505 11.698 58.0786C11.2837 56.259 8.98296 54.5182 7.28093 56.104C6.50546 56.8263 6.21249 58.0985 6.2614 59.1072C6.31453 60.2054 7.81327 62.6432 6.20796 63.0746ZM28.6689 59.3694C27.606 59.461 26.2223 59.8586 25.7075 60.8697C25.3879 61.4974 25.4539 62.1677 25.3957 62.8432C25.3765 63.0655 25.3464 63.2875 25.3107 63.5093C24.7812 63.4541 24.2356 63.4579 23.7096 63.3158C23.0923 63.1491 22.4486 62.8239 21.7967 62.8563C21.4178 62.875 21.2011 63.3321 21.482 63.616C21.9742 64.1133 23.0428 64.2347 23.7075 64.3721C24.2053 64.4749 24.6617 64.526 25.1156 64.4818C25.0236 64.8791 24.9225 65.2744 24.8223 65.6644C24.5646 66.6674 24.4265 67.7444 23.3017 68.18C22.5796 68.4597 21.6404 68.3166 20.8818 68.3125C19.8406 68.3069 18.7729 68.3018 18.0548 69.1733C16.8953 70.5805 17.3684 72.688 15.0115 72.8141C13.1756 72.9124 11.0273 71.8189 9.33499 71.2058C8.51452 70.9085 7.5703 70.8017 7.0514 70.0611C6.42328 69.1649 6.98468 68.6128 7.40296 67.6655C8.02155 66.2646 7.78874 65.2349 7.20296 64.3138C7.91343 63.8519 8.46796 63.0919 8.55124 62.2646C8.61483 61.6318 8.3039 61.1646 8.09468 60.6002C7.83359 59.8966 7.51062 59.1244 7.6628 58.3507C7.85687 57.3638 8.9389 56.7847 9.70592 57.5708C10.7601 58.6513 9.59483 60.8274 11.1175 61.5899C12.1161 62.09 14.0534 61.941 15.0664 61.5368C16.262 61.0594 16.3236 60.0104 16.162 58.8897C16.0247 57.9374 15.4226 56.6341 16.3847 56.0308C16.9298 55.689 17.7165 55.6721 18.2964 55.3346C19.2329 54.7896 19.7328 53.9901 19.5692 52.8955C19.4353 51.9996 18.9787 51.4376 18.4798 50.8835C20.3301 51.0087 22.2896 51.1663 23.8384 50.0716C24.2539 49.7779 24.5111 49.4412 24.6525 49.0824C25.6384 50.3287 26.095 52.1416 25.9554 53.598C25.8331 54.8749 25.4034 56.0776 26.3198 57.1574C26.7717 57.6899 27.3993 58.023 27.9693 58.4097C28.3162 58.6451 28.851 58.9174 29.1671 59.2858C29.0687 59.3154 28.9146 59.3483 28.6689 59.3694Z" fill="#FF4F4F"/>
<path d="M23.757 54.8588C23.5681 54.4565 23.0218 54.3354 22.6454 54.4945C22.4634 54.5712 22.3264 54.6934 22.2198 54.8587C22.1096 55.0295 22.0542 55.3509 22.1301 55.5446C22.2285 55.7962 22.2579 56.0527 22.4589 56.2579C22.6079 56.4101 22.8057 56.4896 23.0087 56.5059C23.092 56.5277 23.1785 56.5451 23.2715 56.5554C23.7192 56.6051 24.0723 56.1454 24.0837 55.7432C24.0937 55.3913 23.8964 55.1556 23.757 54.8588Z" fill="#FF4F4F"/>
<path d="M76.2856 47.2238C75.8086 45.4218 74.9551 44.3911 73.1222 43.8044C70.9373 43.105 68.719 42.8358 66.435 42.8286C61.1911 42.8122 55.9559 42.8704 50.7233 43.2235C48.068 43.4027 45.4419 43.72 42.7946 43.9694C40.6358 44.1727 38.3486 44.2864 36.2743 44.9741C32.2735 46.3002 33.0963 50.6941 33.2407 54.0841C33.3539 56.7421 33.5325 59.3967 33.6532 62.0528C33.721 63.5445 33.808 65.1652 33.7777 66.7317C33.535 67.8411 33.0224 68.8455 32.0465 69.6778C30.6994 70.8266 29.2525 72.0733 28.3188 73.5944C28.0968 73.9559 28.231 74.4923 28.6077 74.6959C29.8285 75.3556 32.4227 73.8178 33.5552 73.3897C35.7899 72.5445 38.155 71.7069 40.4611 71.0875C42.8939 70.4341 45.962 70.7475 48.486 70.7462C51.4956 70.7448 54.5323 70.8872 57.5386 70.7712C60.128 70.6712 62.7126 70.743 65.3045 70.6506C67.7203 70.5647 70.1967 70.6589 72.5909 70.2794C74.287 70.0105 76.1686 69.5745 76.5062 67.7025C76.8948 65.548 76.9542 63.0911 76.9893 60.897C77.0628 56.3196 77.4737 51.7132 76.2856 47.2238ZM74.8895 67.6802C74.5598 68.243 73.4878 68.4505 72.9015 68.5825C71.905 68.8069 70.8422 68.8809 69.8228 68.9264C67.6698 69.0227 65.5064 69.0158 63.3503 69.1C59.0017 69.2697 54.6184 69.1287 50.2619 69.1294C46.5095 69.13 42.4374 68.7431 38.8594 69.95C37.0575 70.5578 35.2172 71.0556 33.4324 71.7141C32.7724 71.9575 32.1119 72.2 31.4522 72.4436C32.5563 71.4805 33.7802 70.6375 34.5911 69.4444C35.4754 68.1439 35.5416 66.0813 35.2602 64.4336C35.2568 63.9716 35.2516 63.5125 35.2582 63.0624C35.293 60.6694 35.1054 58.2356 34.9502 55.8474C34.8069 53.643 34.4696 51.22 34.8379 49.0313C35.0982 47.4836 35.8105 46.7883 37.2971 46.3796C38.5407 46.0377 39.8616 45.8957 41.138 45.761C49.9753 44.8285 58.9867 44.035 67.8836 44.4847C69.8659 44.5849 73.8873 44.9057 74.5848 47.1624C75.1836 49.1005 75.4178 51.1808 75.4561 53.1997C75.5334 57.2761 75.2767 61.2838 75.0611 65.3538C75.0296 65.9445 75.2068 67.138 74.8895 67.6802Z" fill="#FF4F4F"/>
<path d="M30.9758 16.6938C30.2173 14.8172 27.6022 13.2361 25.6978 12.8202C23.6806 12.3797 21.4727 12.9493 20.2111 14.6382C18.9917 16.2708 18.4198 18.8507 19.3108 20.7497C19.6889 21.5557 20.2722 22.2074 20.9556 22.7692C21.6477 23.3382 21.708 23.238 21.9127 23.9905C21.9644 24.1805 21.9895 24.3921 22.0084 24.6086C21.9548 24.8916 21.9284 25.1657 21.952 25.4138C21.7998 26.1631 21.8419 27.1055 22.0872 27.7239C22.4686 28.6861 23.8234 29.1844 24.7802 29.1794C25.8853 29.1738 26.61 28.5489 27.052 27.5886C27.3183 27.0097 27.5933 26.176 27.3919 25.5328C27.567 24.7439 27.1591 23.7733 27.5669 23.0924C27.8819 22.5666 29.0942 22.006 29.5678 21.5514C30.9036 20.2694 31.7165 18.5261 30.9758 16.6938ZM25.9787 27.3163C25.532 28.1083 24.7922 28.2167 23.9702 27.9203C23.1673 27.6308 23.0048 27.1594 22.967 26.4594C22.9828 26.4624 22.9969 26.4664 23.0131 26.4692C23.9394 26.6219 24.9991 26.3403 25.9433 26.3569C26.0606 26.3589 26.1656 26.3647 26.2653 26.3696C26.2267 26.6841 26.1587 26.9971 25.9787 27.3163ZM24.3125 22.6328C24.1433 21.6227 23.5559 20.616 23.4958 19.5853C24.1161 19.4618 24.7677 19.2563 25.3823 19.2693C25.9664 19.2816 25.6998 19.0771 25.618 19.6596C25.5531 20.12 25.4169 20.6077 25.3017 21.0568C25.0594 22.0019 24.7561 22.9197 24.5256 23.855C24.4589 23.4367 24.378 23.0235 24.3125 22.6328ZM29.9534 19.22C29.3233 20.6539 27.9819 21.2003 26.868 22.1385C25.9367 22.923 26.6292 23.6958 26.2975 24.7069C26.0844 25.3563 26.0076 25.2049 25.2872 25.218C25.2323 25.2191 25.1712 25.2256 25.1061 25.2357C25.4683 24.1339 25.6547 22.8702 25.9611 21.7721C26.2075 20.8896 26.7312 19.5564 26.4491 18.641C26.4109 18.5177 26.3075 18.388 26.1723 18.3643C25.2384 18.2003 24.0394 18.7757 23.0944 18.8597C22.8631 18.8803 22.723 19.0258 22.6984 19.2557C22.5881 20.2857 23.1266 21.1924 23.3797 22.1669C23.6605 23.2483 23.7587 24.3592 24.0503 25.4388C23.8766 25.4536 23.7172 25.446 23.5966 25.386C23.0977 25.1378 23.2675 24.7478 23.235 24.2927C23.1223 22.7103 22.2522 22.485 21.2661 21.5249C20.2498 20.5353 19.9255 19.2878 20.1128 17.9264C20.4578 15.4172 22.2545 13.5229 24.9294 13.7818C27.2641 14.0079 31.164 16.4652 29.9534 19.22Z" fill="#FF4F4F"/>
<path d="M67.1836 54.5483C65.564 53.6555 62.9488 54.0814 60.9885 54.4281C60.2191 54.4192 59.4488 54.4216 58.6749 54.437C57.9458 50.3072 54.3901 46.5377 49.5962 47.7447C46.0845 48.6291 44.0657 51.7645 43.8529 55.1283C43.6284 56.4066 43.7285 57.7461 44.2538 59.0747C45.8901 63.2133 50.856 64.1445 54.6633 62.4851C55.8166 61.9825 56.7068 61.2739 57.3626 60.4366C59.3827 60.4501 61.393 60.2767 63.416 60.1586C64.8032 60.0775 67.4518 60.3355 68.0202 58.6959C68.4172 57.5505 68.3941 55.2153 67.1836 54.5483ZM47.5701 61.3411C44.8141 59.7216 44.3221 56.3812 45.3438 53.5591C46.4607 50.4739 49.1109 48.0505 52.5787 48.8274C53.929 49.1299 55.0462 49.938 55.874 51.0314C56.091 51.318 57.6737 54.4652 57.5491 54.4698C57.2737 54.4803 56.9983 54.4906 56.7212 54.5052C55.4671 54.5711 52.6651 54.037 51.8294 55.1684C51.4916 55.6259 51.5587 56.3911 51.5002 56.9287C51.4146 57.7164 51.0459 58.84 51.5244 59.5676C52.1927 60.5836 54.3162 60.3859 55.5565 60.3869C53.4621 62.2592 50.1944 62.8834 47.5701 61.3411ZM57.6629 56.0177C57.6197 57.2592 57.196 58.3781 56.523 59.3141C56.0926 59.3026 55.6624 59.2864 55.2329 59.2622C54.0168 59.1933 52.5643 59.5722 52.4305 58.1892C52.3559 57.4175 52.513 56.0802 53.2882 55.72C53.8335 55.4666 54.9782 55.6559 55.593 55.6312C56.2833 55.6036 56.9722 55.5762 57.6619 55.5484C57.6668 55.7047 57.6683 55.8611 57.6629 56.0177ZM66.9755 57.99C66.6199 58.9947 65.7147 58.8869 64.7332 58.973C62.5193 59.167 60.2891 59.3161 58.063 59.3276C58.6458 58.1566 58.873 56.8316 58.7985 55.5027C59.2735 55.4836 59.7491 55.4642 60.2241 55.4456C60.2266 55.4455 60.2285 55.4469 60.2312 55.4466C60.2418 55.4458 60.2526 55.4448 60.2632 55.4441C62.0638 55.3734 63.8646 55.3066 65.6691 55.2508C65.6832 55.2503 65.693 55.2442 65.7061 55.2425C65.9557 55.2844 66.1735 55.3484 66.3307 55.4467C67.0136 55.8737 67.2416 57.2386 66.9755 57.99Z" fill="#FF4F4F"/>
<path d="M67.697 48.1481C64.8094 47.8565 61.6523 47.8876 58.7566 48.1481C58.4334 48.1772 58.2966 48.7057 58.6731 48.7648C61.5842 49.222 64.7715 49.2647 67.697 48.9603C68.2178 48.9061 68.2201 48.2009 67.697 48.1481Z" fill="#FF4F4F"/>
<path d="M68.803 49.9914C65.9153 49.6998 62.7583 49.7309 59.8625 49.9914C59.5396 50.0204 59.4025 50.5489 59.7791 50.6081C62.6902 51.0654 65.8775 51.1079 68.803 50.8035C69.3238 50.7493 69.3261 50.0442 68.803 49.9914Z" fill="#FF4F4F"/>
<path d="M70.5543 51.9269C67.6666 51.6353 64.5096 51.6664 61.6138 51.9269C61.2908 51.956 61.1538 52.4844 61.5303 52.5436C64.4414 53.0008 67.6288 53.0435 70.5543 52.7391C71.075 52.6849 71.0774 51.9797 70.5543 51.9269Z" fill="#FF4F4F"/>
</svg>
