<svg width="506" height="506" viewBox="0 0 506 506" fill="none" xmlns="http://www.w3.org/2000/svg">
<circle cx="253" cy="253" r="253" fill="white" fill-opacity="0.2"/>
<circle cx="253" cy="253" r="207" fill="white"/>
<path d="M129.953 275.043V171.039C119.699 165.337 113.644 159.398 112.785 152.834L112.375 152.805V275.043C112.375 286.633 128.781 297.092 155.734 304.498V298.629C139.404 291.977 129.953 283.837 129.953 275.043Z" fill="#D4E1F4"/>
<path d="M353.856 118.996C327.175 111.228 291.597 106.949 253.726 106.949C215.793 106.949 180.04 111.226 153.078 118.995C124.359 127.271 109.171 138.381 109.171 151.126L108.863 275.043C108.863 288.269 124.748 299.627 154.804 307.886C155.326 308.029 155.874 308.05 156.405 307.947C156.936 307.843 157.436 307.619 157.866 307.291C158.296 306.963 158.645 306.54 158.885 306.056C159.125 305.571 159.25 305.037 159.25 304.496V248.359C174.615 244.348 193.079 241.332 212.87 239.614L212.262 232.609C192.836 234.296 174.631 237.221 159.25 241.105V208.186C182.61 202.086 212.606 198.412 244.115 197.815L243.982 190.783C212.727 191.377 182.869 194.963 159.25 200.926V180.578C159.25 179.808 158.998 179.059 158.531 178.446C158.064 177.833 157.409 177.391 156.666 177.187C150.781 175.601 144.998 173.657 139.35 171.365C160.253 162.724 193.035 156.617 229.286 154.768L228.928 147.746C187.942 149.836 152.418 156.986 130.956 167.419C121.453 162.285 116.195 156.637 116.195 151.123C116.195 142.238 130.706 132.75 155.011 125.747C181.357 118.155 216.405 113.969 253.698 113.969C290.921 113.969 325.773 118.138 351.833 125.728C375.804 132.709 390.116 142.174 390.116 151.083L390.065 151.982C389.504 156.988 384.285 162.169 375.253 166.989C353.765 156.751 318.599 149.758 278.184 147.726L277.832 154.749C314.082 156.569 345.836 162.396 366.783 170.942C360.708 173.4 354.49 175.486 348.163 177.189C347.42 177.393 346.765 177.835 346.298 178.447C345.831 179.06 345.578 179.808 345.578 180.578V200.433C322.294 194.743 293.118 191.331 262.645 190.775L262.517 197.806C293.229 198.367 322.534 201.861 345.578 207.679V240.609C330.754 236.986 313.373 234.242 294.904 232.627L294.292 239.631C313.114 241.277 330.747 244.109 345.578 247.853V304.497C345.578 305.039 345.703 305.572 345.943 306.057C346.183 306.542 346.532 306.965 346.963 307.293C347.393 307.621 347.893 307.845 348.424 307.948C348.956 308.051 349.503 308.03 350.025 307.887C388.463 297.325 396.528 284.197 396.528 275.06L397.262 151.127C397.262 138.367 382.215 127.258 353.856 118.996ZM152.219 299.826C129.374 292.932 115.891 283.793 115.891 275.041V249.141C122.824 256.026 135.051 262.018 152.219 266.97V299.826ZM152.219 259.628C129.571 252.785 115.617 243.649 115.617 234.836L115.891 205.499C122.827 212.38 135.051 218.536 152.219 223.502V259.628ZM152.219 183.241V216.215C129.564 209.376 116.192 200.29 116.192 191.477L115.891 165.35C122.827 172.234 135.051 178.281 152.219 183.241ZM389.497 275.043C389.497 283.71 375.805 292.852 352.609 299.828V267.14C369.991 262.193 382.441 256.288 389.615 249.503L389.497 275.043ZM389.676 236.243C388.309 244.69 374.748 253.236 352.609 259.808V223.72C370.217 218.72 382.619 212.934 389.816 206.362L389.676 236.243ZM389.872 193.873C388.073 201.696 374.769 209.912 352.606 216.465V183.242C372.303 177.578 383.683 171.303 390.001 165.334L389.872 193.873Z" fill="#FF4F4F"/>
<path d="M213.522 122.16C194.176 124.128 176.816 127.226 161.926 131.367C161.478 131.488 161.059 131.697 160.692 131.98C160.326 132.264 160.019 132.618 159.789 133.021C159.56 133.424 159.412 133.868 159.355 134.328C159.298 134.789 159.333 135.256 159.457 135.702C159.581 136.149 159.793 136.567 160.079 136.932C160.366 137.297 160.721 137.601 161.126 137.828C161.531 138.054 161.976 138.199 162.437 138.252C162.897 138.306 163.364 138.268 163.81 138.141C178.114 134.163 195.55 131.056 214.234 129.155C214.696 129.111 215.144 128.977 215.554 128.759C215.964 128.542 216.326 128.245 216.62 127.886C216.915 127.528 217.135 127.115 217.27 126.671C217.404 126.227 217.448 125.76 217.401 125.299C217.354 124.837 217.217 124.39 216.996 123.982C216.775 123.574 216.476 123.214 216.115 122.922C215.755 122.63 215.34 122.413 214.895 122.282C214.45 122.151 213.983 122.11 213.522 122.16Z" fill="#FF4F4F"/>
<path d="M149.23 135.389C147.688 135.947 146.17 136.526 144.719 137.109C143.854 137.457 143.162 138.135 142.797 138.992C142.431 139.85 142.421 140.818 142.769 141.683C143.117 142.548 143.795 143.239 144.652 143.605C145.51 143.971 146.478 143.98 147.343 143.632C148.715 143.08 150.156 142.531 151.62 142.002C152.497 141.685 153.212 141.033 153.608 140.189C154.004 139.345 154.049 138.378 153.732 137.501C153.415 136.624 152.763 135.909 151.918 135.513C151.074 135.117 150.107 135.072 149.23 135.389Z" fill="#FF4F4F"/>
<path d="M298.11 222.498C298.111 222.254 298.1 222.01 298.076 221.767C297.712 218.551 296.532 215.481 294.647 212.849C292.762 210.217 290.235 208.111 287.307 206.731L275.852 202.609V197.117C275.823 196.451 275.612 195.805 275.242 195.25C274.873 194.695 274.358 194.252 273.754 193.968C273.341 193.818 272.905 193.742 272.465 193.743L265.891 193.234V192.963C269.776 190.873 273.09 187.863 275.543 184.196C277.996 180.529 279.512 176.316 279.959 171.927C281.803 170.938 283.27 169.369 284.134 167.463C284.998 165.557 285.211 163.419 284.74 161.381C284.495 160.349 284.045 159.377 283.415 158.524C282.785 157.671 281.989 156.955 281.075 156.418L281.446 151.121C281.711 147.29 281.184 143.445 279.9 139.826C278.616 136.207 276.601 132.891 273.981 130.084C271.361 127.277 268.191 125.038 264.669 123.508C261.147 121.977 257.348 121.188 253.508 121.188C249.668 121.188 245.869 121.977 242.347 123.508C238.825 125.038 235.656 127.277 233.036 130.084C230.415 132.891 228.401 136.207 227.116 139.826C225.832 143.445 225.306 147.29 225.57 151.121L225.935 156.408C225.015 156.944 224.214 157.662 223.579 158.517C222.945 159.372 222.49 160.347 222.244 161.382C221.743 163.424 221.944 165.575 222.814 167.489C223.684 169.403 225.174 170.968 227.042 171.933C227.436 176.256 228.887 180.416 231.268 184.047C233.649 187.677 236.887 190.666 240.695 192.75V193.234L234.787 193.752C234.322 193.771 233.864 193.864 233.43 194.03C232.828 194.3 232.312 194.731 231.94 195.276C231.568 195.821 231.353 196.458 231.321 197.117V202.609L219.783 206.731C216.883 208.095 214.377 210.176 212.503 212.776C210.628 215.376 209.446 218.411 209.069 221.594C209.042 221.858 209.029 222.123 209.031 222.388L209.055 286.647C209.056 287.85 209.296 289.041 209.759 290.151C210.222 291.262 210.9 292.27 211.753 293.118C212.607 293.966 213.619 294.637 214.733 295.092C215.846 295.548 217.038 295.78 218.242 295.773H225.118L228.25 388.565V388.602C228.484 391.411 229.766 394.03 231.841 395.937C233.917 397.845 236.634 398.902 239.452 398.898H268.176C270.972 398.906 273.669 397.869 275.74 395.99C277.81 394.112 279.104 391.527 279.367 388.744L279.381 388.526L282.512 295.773H288.918C291.355 295.766 293.691 294.794 295.414 293.071C297.138 291.347 298.109 289.012 298.117 286.574L298.11 222.498ZM216.086 223.019C216.083 222.667 216.113 222.316 216.177 221.969C216.498 220.158 217.217 218.44 218.282 216.94C219.348 215.44 220.733 214.196 222.338 213.298L224.491 277.023H216.086V223.019ZM218.242 288.742C217.962 288.75 217.684 288.702 217.423 288.601C217.163 288.5 216.925 288.348 216.724 288.153C216.523 287.959 216.363 287.726 216.254 287.469C216.144 287.212 216.087 286.935 216.086 286.656V284.055H224.728L224.88 288.742H218.242ZM268.82 204.208V205.263L262.408 213.299L259.529 211.164L268.82 204.208ZM238.176 134.883C240.827 132.046 244.214 130 247.959 128.972C251.703 127.945 255.66 127.976 259.388 129.062C263.116 130.149 266.47 132.248 269.076 135.127C271.683 138.005 273.44 141.55 274.152 145.367C273.132 143.192 271.537 141.336 269.54 140C267.543 138.663 265.219 137.897 262.819 137.783C261.621 137.725 260.425 137.942 259.325 138.418C258.224 138.894 257.246 139.615 256.467 140.526C254.474 142.845 251.947 144.644 249.104 145.769C246.261 146.893 243.187 147.31 240.147 146.982L236.346 146.572C235.753 146.51 235.153 146.567 234.582 146.738C234.011 146.91 233.48 147.194 233.019 147.573C232.858 147.706 232.707 147.85 232.567 148.005C232.825 143.105 234.812 138.455 238.176 134.883ZM233.873 169.429C233.873 168.602 233.581 167.801 233.049 167.168C232.517 166.534 231.779 166.109 230.964 165.966C230.413 165.87 229.914 165.582 229.554 165.153C229.195 164.724 228.999 164.182 229.001 163.622C229.002 163.488 229.015 163.353 229.039 163.221C229.134 163.27 229.231 163.314 229.332 163.353C232.738 164.717 234.288 165.173 235.933 164.152C236.406 163.856 236.803 163.454 237.093 162.978C237.384 162.502 237.56 161.965 237.607 161.41L238.213 153.845L239.392 153.972C243.565 154.421 247.785 153.849 251.688 152.304C255.591 150.76 259.06 148.29 261.796 145.108C261.884 145.007 261.993 144.927 262.116 144.875C262.239 144.822 262.372 144.799 262.506 144.806C263.612 144.858 264.684 145.209 265.607 145.821C266.531 146.433 267.271 147.284 267.751 148.282L271.294 162.885C271.438 163.482 271.737 164.03 272.159 164.476C272.582 164.921 273.114 165.248 273.702 165.424C274.29 165.6 274.914 165.619 275.512 165.479C276.109 165.339 276.66 165.045 277.109 164.626L277.988 163.806C277.95 164.33 277.739 164.826 277.388 165.217C277.036 165.607 276.565 165.869 276.048 165.962C275.232 166.115 274.494 166.548 273.964 167.187C273.434 167.826 273.144 168.631 273.145 169.461C273.14 174.669 271.067 179.661 267.382 183.34C263.696 187.019 258.7 189.083 253.493 189.078C248.285 189.074 243.293 187.001 239.614 183.315C235.935 179.63 233.871 174.633 233.876 169.426L233.873 169.429ZM253.561 206.75L247.727 202.173V195.456C249.614 195.914 251.55 196.141 253.493 196.132C255.298 196.133 257.097 195.937 258.859 195.546V202.581L253.561 206.75ZM258.3 254.543L253.656 258.937L249.358 254.61L253.834 220.592L258.3 254.543ZM238.352 204.208L247.636 211.164L244.761 213.3L238.352 205.266V204.208ZM250.07 391.867H239.452C238.412 391.853 237.413 391.459 236.643 390.76C235.873 390.061 235.386 389.104 235.272 388.07L231.958 289.914H250.07V391.867ZM272.358 388.069C272.245 389.104 271.757 390.061 270.987 390.761C270.216 391.46 269.216 391.854 268.176 391.867H257.102V289.914H275.672L272.358 388.069ZM275.91 282.883H231.721L231.622 279.953H276.009L275.91 282.883ZM276.246 272.922H231.384L229.287 210.893L233.13 209.656L241.582 220.369C242.153 221.092 242.985 221.563 243.9 221.679C244.814 221.795 245.737 221.547 246.471 220.989L246.713 220.805L242.16 255.402C242.09 255.935 242.143 256.476 242.315 256.985C242.486 257.494 242.773 257.957 243.151 258.338L251.082 266.327C251.729 266.978 252.605 267.35 253.522 267.365C254.44 267.379 255.327 267.034 255.994 266.403L264.435 258.415C264.839 258.033 265.146 257.561 265.332 257.037C265.517 256.513 265.576 255.953 265.504 255.402L261.003 221.19C261.733 221.638 262.602 221.802 263.445 221.65C264.288 221.498 265.045 221.041 265.573 220.367L274.026 209.654L278.336 211.052L276.246 272.922ZM291.086 286.656C291.083 286.936 291.024 287.212 290.913 287.47C290.802 287.727 290.641 287.959 290.439 288.154C290.238 288.348 289.999 288.5 289.738 288.601C289.477 288.702 289.198 288.75 288.918 288.742H282.75L282.902 284.055H291.086V286.656ZM291.086 277.023H283.139L285.29 213.557C286.775 214.48 288.05 215.705 289.031 217.151C290.013 218.598 290.68 220.235 290.989 221.956C291.057 222.311 291.089 222.672 291.086 223.033V277.023Z" fill="#090E36"/>
</svg>
